<svg width="91" height="62" viewBox="0 0 91 62" fill="none" xmlns="http://www.w3.org/2000/svg">
<g id="Group">
<path id="Vector" d="M24.5991 14.6746C24.5991 14.6746 26.869 4.6082 36.2445 5.10164C45.5214 5.59509 47.7913 5.59509 51.8375 5.10164C55.8838 4.6082 62.1013 -0.227606 63.8777 1.25274C65.6541 2.73309 64.6672 5.98986 61.4105 8.95056C58.1537 11.8126 52.5284 13.8851 52.5284 13.8851L64.4699 15.9575C64.4699 15.9575 75.2271 10.2335 77.6943 11.2204C80.1616 12.2073 79.9642 14.9706 79.9642 14.9706C79.9642 14.9706 84.4052 12.9968 85.6882 14.7733C86.9712 16.5497 87.2672 17.734 85.9843 18.7209C85.9843 18.7209 86.7738 17.9313 89.1423 18.6222C91.1161 19.2143 90.9188 22.8658 89.1423 23.8527L88.5502 24.2475C88.5502 24.2475 71.6742 33.9191 71.1808 34.0178C68.2201 34.4126 50.0611 33.623 40.6856 33.2283C37.2314 33.0309 33.9747 34.8073 32.1982 37.6693L17.0987 61.5523L0.124001 42.0117L24.5991 14.6746Z" fill="#B78876"/>
<g id="Group_2">
<path id="Vector_2" d="M55.193 20.2011C55.193 20.2998 56.1799 20.4972 57.9563 20.7933C59.7327 21.0893 62.2 21.5828 64.9633 22.0762H65.062H65.1607C66.345 21.4841 67.6279 20.9906 69.0096 20.2998C72.4637 18.7208 75.6218 17.2404 78.0891 16.0561C79.1747 15.5627 80.0629 15.0692 80.8524 14.7732C81.5432 14.4771 81.8393 14.2797 81.8393 14.181C81.8393 14.181 81.4445 14.2797 80.7537 14.5758C79.9642 14.8719 79.076 15.2666 77.9904 15.7601C76.8061 16.2535 75.4245 16.8457 73.8454 17.5365C72.2664 18.2273 70.5886 19.0168 68.8122 19.8064C67.5293 20.3985 66.2463 20.9906 64.9633 21.5828H65.062C62.2 21.0893 59.7327 20.7933 57.9563 20.4972C56.2786 20.2011 55.193 20.1024 55.193 20.2011Z" fill="#AA6550"/>
</g>
<g id="Group_3">
<path id="Vector_3" d="M59.338 24.6424C59.338 24.8398 61.2131 25.3333 63.1869 26.8136C65.062 28.2939 66.0489 30.0704 66.1476 30.0704C66.2463 30.0704 65.5555 27.9979 63.483 26.4188C61.5092 24.8398 59.338 24.5437 59.338 24.6424Z" fill="#AA6550"/>
</g>
<g id="Group_4">
<path id="Vector_4" d="M40.0935 10.6283C39.9948 10.6283 39.9948 11.2204 39.6987 12.2073C39.4026 13.1942 38.7118 14.5759 37.4288 15.7602L37.1328 16.0562L37.6262 16.1549C39.0079 16.451 40.5869 16.8458 42.2647 17.5366C45.028 18.7209 47.2978 20.2012 48.7782 21.4842C50.2585 22.7672 51.0481 23.6554 51.1468 23.6554C51.1468 23.6554 50.9494 23.3593 50.6533 22.9645C50.2585 22.5698 49.7651 21.9776 49.0743 21.2868C47.5939 19.9052 45.324 18.2274 42.5607 17.1418C40.883 16.451 39.304 16.0562 37.8236 15.7602L37.9223 16.1549C39.304 14.872 39.8961 13.3916 40.1922 12.4047C40.1922 11.2204 40.0935 10.6283 40.0935 10.6283Z" fill="#AA6550"/>
</g>
<g id="Group_5">
<path id="Vector_5" d="M51.2454 13.3916C51.2454 13.4903 54.1075 14.4772 57.759 15.168C59.5354 15.4641 61.2131 15.7602 62.4961 15.8589C63.6804 15.9575 64.4699 15.9575 64.4699 15.9575C64.4699 15.7602 61.5092 15.3654 57.8577 14.6746C56.1799 14.3785 54.6009 14.0824 53.2192 13.7864C51.9363 13.4903 51.2454 13.3916 51.2454 13.3916Z" fill="#AA6550"/>
</g>
<g id="Group_6">
<path id="Vector_6" d="M67.0358 26.6162C67.0358 26.7148 68.1214 26.2214 69.8978 25.5306C71.5755 24.8397 74.0428 23.8528 76.7074 22.9646C79.372 21.9777 81.8393 21.0895 83.517 20.3987C85.2934 19.7079 86.2803 19.1157 86.2803 19.017C86.2803 18.9183 85.1948 19.4118 83.4183 20.0039C81.5432 20.6948 79.1747 21.4843 76.51 22.4712C73.8454 23.4581 71.3781 24.445 69.7004 25.2345C68.0227 25.9253 67.0358 26.5175 67.0358 26.6162Z" fill="#AA6550"/>
</g>
<g id="Group_7">
<path id="Vector_7" d="M62.7921 26.2213C62.7921 26.32 64.2725 27.0109 66.345 27.2082C68.4175 27.4056 70.0952 27.1095 69.9965 27.0108C69.9965 26.8135 68.3188 26.9122 66.345 26.7148C64.3712 26.4187 62.7921 26.024 62.7921 26.2213Z" fill="#AA6550"/>
</g>
</g>
</svg>
