<svg width="228" height="198" viewBox="0 0 228 198" fill="none" xmlns="http://www.w3.org/2000/svg">
<g id="Group">
<path id="Vector" d="M170.938 18.4877C170.938 18.4877 185.939 27.1724 189.097 53.6213C190.775 67.4379 196.696 93.0973 196.696 93.0973L209.131 79.182L227.882 100.598C227.882 100.598 207.749 143.627 196.301 155.371C184.853 167.115 162.253 170.766 162.253 170.766L157.714 98.8213L170.938 18.4877Z" fill="#FA9F30"/>
<path id="Vector_2" d="M56.8524 6.64491L91.5912 0.526123L135.903 2.69731C135.903 2.69731 172.813 17.8956 170.938 18.4877L178.142 89.7418L160.279 124.185L164.72 197.511H42.4436L48.8585 146.489L56.8524 85.0047L41.6541 132.573L39.3843 197.511H5.33623C1.78339 169.286 0.599121 130.007 0.599121 130.007L28.4297 39.2126C32.2786 26.5803 40.5685 15.7244 52.0166 9.01346C53.8917 7.92788 55.5694 7.03967 56.8524 6.64491Z" fill="#FA9F30"/>
<g id="Group_2">
<path id="Vector_3" d="M171.333 54.5095C171.333 54.5095 171.333 54.6082 171.234 54.9043C171.135 55.2003 171.135 55.4964 171.037 55.9899C170.839 56.9768 170.642 58.3584 170.346 60.1348C169.754 63.6877 168.865 68.9182 167.879 75.3331C166.892 81.7479 165.806 89.4458 164.72 97.9331C163.635 106.42 162.648 115.895 162.056 125.764C161.957 126.652 161.957 127.639 161.858 128.428C162.352 147.673 162.944 164.944 163.536 177.379C163.832 183.596 164.03 188.629 164.227 192.083C164.326 193.761 164.424 195.143 164.523 196.031C164.523 196.426 164.622 196.82 164.622 197.116C164.622 197.314 164.622 197.511 164.622 197.511C164.622 197.511 164.622 197.413 164.622 197.116C164.622 196.82 164.622 196.524 164.622 196.031C164.622 195.044 164.523 193.761 164.424 191.985C164.326 188.432 164.128 183.497 163.832 177.28C163.339 164.845 162.845 147.574 162.352 128.33C162.352 127.441 162.451 126.553 162.549 125.665C163.141 115.796 164.128 106.322 165.115 97.8344C166.201 89.3471 167.188 81.6493 168.175 75.2344C169.162 68.8196 169.951 63.589 170.444 60.0361C170.741 58.2597 170.938 56.8781 171.037 55.8912C171.135 55.3977 171.135 55.1016 171.234 54.8056C171.333 54.6082 171.333 54.5095 171.333 54.5095Z" fill="#263238"/>
</g>
<g id="Group_3">
<path id="Vector_4" d="M64.6489 58.3584C64.6489 58.3584 64.7476 58.1611 64.7476 57.865C64.8463 57.4702 64.8462 57.0755 64.9449 56.582C64.9449 56.2859 65.0436 55.9899 65.0436 55.5951C65.0436 55.2004 65.1423 54.9043 65.1423 54.4108C65.1423 53.6213 65.241 52.6344 65.241 51.6475C65.241 51.1541 65.241 50.5619 65.241 49.9698C65.241 49.3777 65.1423 48.7855 65.0436 48.1934C64.9449 47.0091 64.6489 45.7261 64.4515 44.3445C63.8594 41.6798 62.9711 38.7191 61.5895 35.8571C60.2078 32.9951 58.6288 30.4292 56.951 28.258C56.0628 27.1724 55.2733 26.1855 54.3851 25.2973C53.9904 24.9025 53.5956 24.4091 53.1021 24.0143C52.7074 23.6196 52.3126 23.3235 51.9179 22.9288C51.1284 22.2379 50.3388 21.7445 49.7467 21.1523C49.4506 20.9549 49.1546 20.6589 48.8585 20.4615C48.5624 20.2641 48.2663 20.0667 48.069 19.9681C47.5755 19.672 47.2794 19.4746 46.8847 19.2772C46.5886 19.0798 46.4899 19.0798 46.4899 19.0798C46.4899 19.0798 46.5886 19.1785 46.8847 19.3759C47.1808 19.5733 47.5755 19.8694 47.9703 20.1654C48.1677 20.3628 48.4637 20.4615 48.7598 20.6589C49.0559 20.8563 49.3519 21.1523 49.648 21.3497C50.2401 21.8432 51.0297 22.4353 51.8192 23.1261C52.2139 23.5209 52.6087 23.8169 53.0034 24.2117C53.3982 24.6065 53.793 25.0012 54.1877 25.4947C55.076 26.3829 55.8655 27.3698 56.655 28.4554C58.3327 30.6266 59.9118 33.1925 61.2934 35.9558C62.5764 38.8178 63.4646 41.6798 64.1554 44.3445C64.4515 45.7261 64.6489 46.9104 64.7476 48.1934C64.8463 48.7855 64.9449 49.3777 64.9449 49.9698C64.9449 50.5619 64.9449 51.0554 65.0436 51.5488C65.1423 52.5357 65.0436 53.5226 65.0436 54.3121C65.0436 54.7069 65.0436 55.1017 65.0436 55.4964C65.0436 55.7925 64.9449 56.1873 64.9449 56.4833C64.9449 56.9768 64.8462 57.4702 64.8462 57.7663C64.6489 58.1611 64.6489 58.3584 64.6489 58.3584Z" fill="#263238"/>
</g>
<g id="Group_4">
<path id="Vector_5" d="M41.6541 132.672C41.6541 132.672 41.7528 132.475 41.8515 132.08C41.9502 131.685 42.1476 131.093 42.4436 130.402C42.9371 128.823 43.6279 126.751 44.4174 124.086C46.0952 118.757 48.365 111.355 51.0296 103.262C53.6943 95.1698 56.1615 87.7681 58.1353 82.6362C59.1222 80.0703 60.2078 77.9978 60.8 76.5174C61.096 75.8266 61.2934 75.2344 61.4908 74.8397C61.5895 74.4449 61.6882 74.2476 61.6882 74.2476C61.6882 74.2476 61.5895 74.4449 61.3921 74.8397C61.1947 75.2344 60.8986 75.8266 60.6026 76.4187C59.9117 77.8004 58.9249 79.8729 57.8393 82.4388C55.7668 87.6694 53.2995 94.9724 50.6349 103.065C47.9703 111.158 45.7004 118.559 44.1213 123.987C43.3318 126.652 42.7397 128.823 42.2462 130.402C42.0489 131.093 41.9502 131.685 41.7528 132.179C41.6541 132.475 41.6541 132.672 41.6541 132.672Z" fill="#263238"/>
</g>
<g id="Group_5">
<path id="Vector_6" d="M15.9948 130.402C15.9948 130.501 17.2778 130.106 19.449 129.81C21.6201 129.514 24.5808 129.218 27.8376 129.613C31.0944 130.007 33.9564 130.797 36.0289 131.586C38.0027 132.376 39.187 133.067 39.2856 132.968C39.2856 132.968 38.9896 132.771 38.4961 132.475C38.0027 132.179 37.2131 131.784 36.2263 131.29C34.2525 130.402 31.2918 129.514 27.9363 129.119C24.5808 128.724 21.5215 129.021 19.3503 129.514C18.2647 129.711 17.3765 129.909 16.883 130.106C16.2909 130.205 15.9948 130.402 15.9948 130.402Z" fill="#263238"/>
</g>
<g id="Group_6">
<path id="Vector_7" d="M169.951 125.369C169.951 125.369 170.247 124.875 170.839 123.987C171.431 123.099 172.32 121.816 173.504 120.434C175.872 117.474 179.327 113.526 183.176 109.184C187.024 104.841 190.479 100.894 192.946 98.0318C194.13 96.5515 195.117 95.3672 195.808 94.5777C196.499 93.7881 196.795 93.2947 196.795 93.2947C196.795 93.2947 196.4 93.6894 195.61 94.479C194.821 95.3672 193.834 96.4528 192.65 97.8344C190.084 100.696 186.63 104.644 182.781 108.888C178.932 113.23 175.478 117.276 173.208 120.237C172.024 121.717 171.234 123 170.642 123.987C170.346 124.481 170.148 124.777 170.05 125.073C169.951 125.27 169.951 125.369 169.951 125.369Z" fill="#263238"/>
</g>
<g id="Group_7" opacity="0.3">
<path id="Vector_8" d="M163.141 170.766C162.549 150.831 161.562 132.475 163.339 112.737C164.128 130.205 170.543 150.634 176.958 166.917L163.141 170.766Z" fill="black"/>
</g>
<g id="Group_8" opacity="0.3">
<path id="Vector_9" d="M56.8524 85.1034C56.8524 85.1034 62.5764 72.3724 62.1817 72.3724C62.7738 96.1567 57.938 123.395 49.0559 145.403L56.8524 85.1034Z" fill="black"/>
</g>
<g id="Group_9">
<path id="Vector_10" d="M72.4454 152.41C72.4454 152.41 72.6428 152.607 73.1363 152.805C73.6297 153.101 74.3206 153.496 75.1101 153.989C76.7878 154.976 79.3537 156.456 82.4131 158.331C85.4725 160.207 89.124 162.476 93.269 164.746C97.414 167.016 102.052 169.483 107.184 171.359C112.316 173.135 117.547 174.418 122.284 174.418C124.652 174.418 126.922 174.122 128.995 173.431C131.067 172.839 132.844 171.852 134.225 170.668C137.087 168.398 138.469 165.635 138.962 163.661C139.16 162.674 139.259 161.884 139.259 161.391C139.259 160.897 139.259 160.601 139.259 160.601C139.16 160.601 139.357 161.687 138.765 163.661C138.272 165.536 136.791 168.2 134.028 170.47C132.646 171.556 130.87 172.444 128.896 173.135C126.922 173.727 124.652 174.023 122.284 174.023C117.547 174.023 112.415 172.74 107.382 170.964C102.25 169.089 97.6114 166.72 93.4664 164.45C89.3214 162.18 85.6699 159.91 82.6105 158.134C79.5511 156.259 76.9852 154.877 75.2087 153.89C74.3205 153.397 73.6297 153.101 73.1363 152.805C72.6428 152.509 72.4454 152.41 72.4454 152.41Z" fill="#263238"/>
</g>
<g id="Group_10">
<path id="Vector_11" d="M72.5441 123.494C72.5441 123.494 72.6428 124.086 72.9389 125.172C73.0376 125.764 73.235 126.356 73.531 127.145C73.8271 127.935 74.0245 128.823 74.4192 129.711C74.814 130.698 75.2087 131.685 75.7022 132.771C76.1956 133.856 76.7878 134.942 77.4786 136.126C78.8603 138.495 80.4393 140.962 82.4131 143.33C84.3869 145.699 86.4594 147.771 88.5319 149.548C89.6175 150.436 90.5057 151.226 91.4926 151.916C92.4795 152.607 93.3677 153.199 94.2559 153.792C95.1441 154.384 95.9336 154.778 96.6245 155.173C97.3153 155.568 97.9074 155.864 98.4996 156.16C99.4865 156.654 100.079 156.95 100.079 156.851C100.079 156.851 99.5852 156.456 98.5983 155.963C98.1048 155.667 97.5127 155.371 96.8219 154.976C96.131 154.581 95.3415 154.088 94.552 153.496C93.7625 152.903 92.7756 152.311 91.8874 151.62C90.9005 150.93 90.0123 150.14 88.9267 149.252C86.9529 147.475 84.8804 145.403 82.9066 143.034C80.9328 140.666 79.3537 138.199 77.9721 135.929C77.3799 134.744 76.6891 133.659 76.1956 132.573C75.7022 131.488 75.2087 130.501 74.814 129.613C74.4192 128.724 74.1231 127.836 73.8271 127.047C73.531 126.257 73.3336 125.665 73.1363 125.073C72.8402 124.086 72.6428 123.494 72.5441 123.494Z" fill="#263238"/>
</g>
<g id="Group_11">
<path id="Vector_12" d="M169.509 77.9752C169.474 77.8156 174.58 76.5546 180.915 75.1588C187.249 73.763 192.412 72.7609 192.448 72.9206C192.483 73.0803 187.376 74.3412 181.042 75.737C174.708 77.1329 169.544 78.1349 169.509 77.9752Z" fill="#101010"/>
</g>
<g id="Group_12">
<path id="Vector_13" d="M169.655 72.1751C169.655 72.2737 170.938 72.0764 172.912 71.7803C174.886 71.4842 177.649 70.9908 180.708 70.3986C183.669 69.8065 186.334 69.313 188.406 68.9183C190.38 68.5235 191.564 68.2275 191.564 68.2275C191.564 68.1288 190.281 68.3261 188.307 68.6222C186.334 68.9183 183.57 69.4117 180.511 70.0039C177.55 70.596 174.886 71.0895 172.813 71.4842C170.839 71.879 169.556 72.1751 169.655 72.1751Z" fill="#101010"/>
</g>
<g id="Group_13">
<path id="Vector_14" d="M64.5502 72.9645C64.5502 73.0632 86.7554 73.0632 114.191 72.8658C141.627 72.6684 163.832 72.3724 163.832 72.2737C163.832 72.175 141.627 72.175 114.191 72.3724C86.7554 72.5698 64.5502 72.8658 64.5502 72.9645Z" fill="#101010"/>
</g>
<g id="Group_14">
<path id="Vector_15" d="M62.8725 77.9978C62.8725 78.0965 85.7686 78.2939 113.895 78.2939C142.121 78.2939 164.918 78.1952 164.918 77.9978C164.918 77.8992 142.022 77.7018 113.895 77.7018C85.7686 77.7018 62.8725 77.8992 62.8725 77.9978Z" fill="#101010"/>
</g>
<g id="Group_15">
<path id="Vector_16" d="M21.1267 66.2536C21.2254 66.3523 21.2254 66.2536 21.2254 66.2536H21.3241V66.1549L21.2254 66.2536C23.0018 66.9444 30.6996 69.6091 39.6804 72.9645C44.8122 74.9383 49.4507 76.7147 53.0035 78.0964C54.6812 78.6885 55.9642 79.2807 57.0498 79.6754C58.0367 80.0702 58.5302 80.1689 58.5302 80.1689C58.5302 80.1689 58.0367 79.8728 57.1485 79.4781C56.2603 79.0833 54.8786 78.4912 53.2009 77.8003C49.8454 76.4187 45.207 74.5436 39.9765 72.5698C30.897 69.1156 23.1992 66.6484 21.2254 66.2536H21.3241V66.1549L21.2254 66.2536C21.2254 66.2536 21.1267 66.1549 21.1267 66.2536Z" fill="#101010"/>
</g>
<g id="Group_16">
<path id="Vector_17" d="M41.371 66.7256C30.6246 63.1147 21.9551 60.0619 22.0072 59.9069C22.0593 59.7519 30.8132 62.5534 41.5596 66.1643C52.3059 69.7751 60.9754 72.8279 60.9233 72.9829C60.8712 73.1379 52.1173 70.3364 41.371 66.7256Z" fill="#101010"/>
</g>
<g id="Group_17">
<path id="Vector_18" d="M88.0384 1.31567C88.0384 1.31567 88.0384 1.61175 87.9398 2.1052C87.8411 2.59865 87.8411 3.38817 87.8411 4.37507C87.9397 6.34887 88.3345 9.30956 89.6175 12.665C90.9004 16.0205 93.269 19.7707 96.9205 22.7314C100.572 25.7908 105.605 27.8633 111.132 28.258C116.659 28.5541 121.889 27.1724 125.935 24.5078C129.982 21.9419 132.745 18.4877 134.423 15.3296C136.1 12.1716 136.89 9.30957 137.186 7.33577C137.285 6.34887 137.383 5.55934 137.383 5.06589C137.383 4.57245 137.383 4.27637 137.383 4.27637C137.383 4.27637 137.285 4.57245 137.285 5.06589C137.285 5.55934 137.186 6.34887 136.989 7.33577C136.594 9.30957 135.804 12.0729 134.127 15.1323C132.35 18.1917 129.686 21.5471 125.738 24.0144C121.79 26.5803 116.659 27.962 111.231 27.6659C105.901 27.2711 100.868 25.2973 97.3153 22.3366C93.6638 19.3759 91.3939 15.7244 90.0122 12.4676C88.7292 9.21087 88.2358 6.34887 88.1371 4.37507C88.1371 3.38817 88.0384 2.59865 88.1371 2.1052C88.1371 1.61175 88.1371 1.31567 88.0384 1.31567Z" fill="#FAFAFA"/>
</g>
<g id="Group_18">
<path id="Vector_19" d="M208.341 81.2545C208.341 81.2545 208.539 81.6493 208.835 82.2414C209.23 82.8336 209.723 83.7218 210.414 84.7087C211.796 86.7812 213.868 89.5445 216.335 92.4065C218.803 95.2685 221.171 97.8344 223.046 99.5122C223.934 100.4 224.724 101.091 225.217 101.486C225.711 101.979 226.007 102.177 226.106 102.177C226.106 102.177 225.908 101.881 225.415 101.387C224.823 100.795 224.132 100.104 223.342 99.3148C221.566 97.5384 219.296 95.0711 216.829 92.1104C214.362 89.2484 212.289 86.4851 210.809 84.5113C210.118 83.6231 209.526 82.8336 209.032 82.1427C208.539 81.5506 208.341 81.2545 208.341 81.2545Z" fill="#101010"/>
</g>
<g id="Group_19" opacity="0.3">
<path id="Vector_20" d="M96.8218 155.173C101.855 158.035 108.566 158.43 114.487 158.627C115.573 158.627 116.757 158.627 117.843 158.233C118.83 157.739 119.718 156.752 119.619 155.568C119.521 154.186 118.139 153.298 116.856 152.805C112.02 150.831 106.592 150.93 101.46 149.647C92.7755 147.475 83.8934 141.258 77.1825 135.435C82.4131 144.12 88.1371 149.943 96.8218 155.173Z" fill="black" fill-opacity="0.5"/>
</g>
</g>
</svg>
