<svg width="84" height="139" viewBox="0 0 84 139" fill="none" xmlns="http://www.w3.org/2000/svg">
<g id="Group">
<g id="Group_2">
<g id="Group_3">
<g id="Group_4">
<g id="Group_5">
<g id="Group_6">
<g id="Group_7">
<g id="Group_8">
<g id="Group_9">
<path id="Vector" d="M39.4742 138.607C51.1197 137.718 60.1004 127.849 60.0017 116.204C60.0017 110.677 59.903 106.236 59.903 106.236C59.903 106.236 77.7659 103.473 77.9633 85.6101C78.1607 67.7472 75.1013 26.6922 75.1013 26.6922C54.3764 17.8101 30.5921 20.7708 12.7293 34.4887L10.0646 36.5612L15.4926 117.882C16.2821 130.317 27.138 139.593 39.4742 138.607Z" fill="#B78876"/>
</g>
</g>
</g>
<g id="Group_10">
<g id="Group_11">
<g id="Group_12">
<path id="Vector_2" d="M59.903 105.94C59.903 105.94 48.6524 106.828 36.6122 99.3279C36.6122 99.3279 42.1389 112.158 59.903 110.579V105.94Z" fill="#AA6550"/>
</g>
</g>
</g>
</g>
</g>
</g>
<g id="Group_13">
<g id="Group_14">
<g id="Group_15">
<g id="Group_16">
<path id="Vector_3" d="M12.2358 55.1147C11.9397 55.016 -0.00175953 51.4632 0.393 63.7008C0.78776 75.9383 12.9266 72.9776 12.9266 72.6815C12.9266 72.2868 12.2358 55.1147 12.2358 55.1147Z" fill="#B78876"/>
</g>
</g>
</g>
<g id="Group_17">
<g id="Group_18">
<g id="Group_19">
<g id="Group_20">
<path id="Vector_4" d="M9.0777 68.1419C8.97901 68.1419 8.88034 68.3393 8.48558 68.438C8.09082 68.6353 7.49868 68.734 6.90654 68.5367C5.62357 68.1419 4.43928 66.0694 4.34059 63.8982C4.2419 62.8126 4.43928 61.7271 4.83404 60.8388C5.13011 59.9506 5.72226 59.2598 6.41309 59.1611C7.00523 58.9637 7.49866 59.3585 7.69604 59.7533C7.89342 60.0493 7.79475 60.3454 7.89344 60.3454C7.89344 60.3454 8.18951 60.148 7.99213 59.6546C7.89344 59.4572 7.79475 59.1611 7.49868 58.865C7.20261 58.6677 6.80784 58.569 6.31439 58.569C5.32749 58.6677 4.53796 59.5559 4.1432 60.5428C3.64975 61.5297 3.45239 62.7139 3.55108 63.9969C3.74846 66.4642 5.03142 68.734 6.80784 69.1288C7.69605 69.3262 8.38688 69.0301 8.78164 68.734C9.07771 68.438 9.0777 68.1419 9.0777 68.1419Z" fill="#AA6550"/>
</g>
</g>
</g>
</g>
</g>
<g id="Group_21">
<g id="Group_22">
<g id="Group_23">
<g id="Group_24">
<g id="Group_25">
<g id="Group_26">
<g id="Group_27">
<g id="Group_28">
<g id="Group_29">
<path id="Vector_5" d="M68.5878 55.3122C68.5878 56.6939 67.5022 57.7795 66.1205 57.8782C64.7389 57.9769 63.5546 56.8913 63.4559 55.6083C63.4559 54.2267 64.5415 53.1411 65.9231 53.0424C67.4035 52.9437 68.5878 54.0293 68.5878 55.3122Z" fill="#263238"/>
</g>
</g>
</g>
<g id="Group_30">
<g id="Group_31">
<g id="Group_32">
<g id="Group_33">
<path id="Vector_6" d="M71.7458 51.858C71.4497 52.1541 69.476 50.7724 66.7127 50.7724C63.9493 50.7724 61.9755 52.1541 61.6795 51.858C61.5808 51.6606 61.8768 51.0685 62.7651 50.4763C63.6533 49.8842 65.1336 49.1934 66.8113 49.1934C68.489 49.1934 69.9694 49.7855 70.7589 50.4763C71.5484 51.0685 71.8445 51.6606 71.7458 51.858Z" fill="#263238"/>
</g>
</g>
</g>
</g>
</g>
<g id="Group_34">
<g id="Group_35">
<g id="Group_36">
<g id="Group_37">
<path id="Vector_7" d="M42.2375 56.0029C42.2375 57.3846 41.152 58.4702 39.7703 58.5689C38.3886 58.6676 37.2044 57.582 37.1057 56.299C37.1057 54.9174 38.1913 53.8318 39.5729 53.7331C41.0533 53.5357 42.2375 54.6213 42.2375 56.0029Z" fill="#263238"/>
</g>
</g>
</g>
<g id="Group_38">
<g id="Group_39">
<g id="Group_40">
<g id="Group_41">
<path id="Vector_8" d="M44.7048 52.3515C44.4087 52.6476 42.4349 51.2659 39.6716 51.2659C36.9083 51.2659 34.9345 52.6476 34.6384 52.3515C34.5398 52.1541 34.8358 51.562 35.724 50.9699C36.6122 50.3777 38.0926 49.6869 39.7703 49.6869C41.448 49.6869 42.9284 50.279 43.7179 50.9699C44.6061 51.562 44.9022 52.2528 44.7048 52.3515Z" fill="#263238"/>
</g>
</g>
</g>
</g>
</g>
<g id="Group_42">
<g id="Group_43">
<g id="Group_44">
<g id="Group_45">
<path id="Vector_9" d="M54.6725 72.6816C54.6725 72.4843 56.3502 72.1882 59.1135 71.8921C59.8044 71.7934 60.4952 71.6947 60.5939 71.2013C60.7913 70.7078 60.4952 69.9183 60.1004 69.1288C59.4096 67.4511 58.7188 65.6746 58.0279 63.7995C55.1659 56.2004 53.0935 49.9829 53.3895 49.8843C53.6856 49.7856 56.2515 55.8056 59.1135 63.4048C59.8044 65.2799 60.4952 67.0563 61.0873 68.734C61.3834 69.5236 61.7782 70.4118 61.4821 71.4974C61.2847 71.9908 60.7913 72.3856 60.2978 72.4843C59.8044 72.5829 59.4096 72.5829 59.1135 72.6816C56.4489 72.879 54.6725 72.879 54.6725 72.6816Z" fill="#263238"/>
</g>
</g>
</g>
</g>
</g>
</g>
</g>
<g id="Group_46">
<g id="Group_47">
<g id="Group_48">
<path id="Vector_10" d="M45.3956 41.5943C45.0995 42.3839 42.3362 41.9891 39.1781 42.3839C35.9214 42.6799 33.3554 43.6668 32.9607 42.976C32.7633 42.6799 33.2567 41.9891 34.2436 41.1996C35.3292 40.5087 36.9083 39.8179 38.8821 39.6205C40.8559 39.4232 42.6323 39.7192 43.7179 40.2127C44.9021 40.7061 45.4943 41.1996 45.3956 41.5943Z" fill="#263238"/>
</g>
</g>
</g>
<g id="Group_49">
<g id="Group_50">
<g id="Group_51">
<path id="Vector_11" d="M70.6603 43.8641C70.1668 44.4563 68.2917 43.8641 66.0218 43.7655C63.752 43.6668 61.7782 44.1602 61.3834 43.5681C61.186 43.272 61.4821 42.5812 62.3703 41.989C63.1598 41.3969 64.5415 40.9034 66.1205 41.0021C67.6996 41.1008 69.0812 41.5943 69.8707 42.2851C70.6603 42.9759 70.8577 43.5681 70.6603 43.8641Z" fill="#263238"/>
</g>
</g>
</g>
</g>
</g>
</g>
<g id="Group_52">
<path id="Vector_12" d="M83.786 15.4415C83.9834 13.2703 83.1939 10.803 81.3188 9.52007C79.5424 8.2371 76.6804 8.33579 75.2987 10.0135C76.1869 7.05282 73.7197 3.59867 70.5616 3.40129C67.6009 3.20391 65.1336 5.37509 62.3703 6.16461C59.607 6.95413 56.6463 6.2633 53.9817 5.17771C51.317 4.09212 48.8498 2.61177 46.1852 1.62487C40.5598 -0.447618 34.2437 -0.151547 28.8157 2.3157C23.3878 4.78295 19.0454 9.42138 16.9729 15.0467C13.0253 13.8624 8.5843 15.8362 6.21574 19.093C3.84718 22.4484 3.15635 26.7908 3.6498 30.8371C3.94587 33.6004 4.73539 36.265 5.72229 38.831C5.72229 39.0284 5.72229 39.3244 5.72229 39.5218C5.91967 49.3908 7.00526 60.8388 11.2489 60.9375C18.552 61.0362 16.7756 47.3183 16.7756 47.3183C25.7564 43.8642 22.4009 30.4423 24.6708 28.3698C26.9406 26.2974 31.5791 21.5602 50.3302 31.2319C57.6332 34.9821 67.3048 34.8834 72.6341 33.6004C72.8315 33.6004 72.9302 33.5017 73.1275 33.5017H73.2262C73.3249 33.5017 73.3249 33.5017 73.4236 33.403C75.1013 33.0083 76.7791 32.3174 78.2594 31.3305C79.9371 30.245 81.5162 28.7646 82.207 26.8895C82.8978 25.0144 82.7004 22.6458 81.2201 21.2642C82.5031 19.6851 83.5887 17.6126 83.786 15.4415Z" fill="#263238"/>
</g>
</g>
<path id="Vector_13" d="M57.041 81.169C56.6463 82.2545 56.1528 83.3401 55.462 84.327C54.7712 85.2152 53.6856 86.0048 52.5013 86.0048C51.2183 86.1034 50.0341 85.3139 49.3432 84.327C48.6524 83.2414 48.455 81.9585 48.455 80.7742C48.5537 79.6886 49.0472 78.3069 50.1327 78.2083C50.6262 78.1096 51.0209 78.3069 51.5144 78.5043C53.4882 79.2938 55.462 80.0834 57.4358 80.8729" fill="#AA6550"/>
<g id="Group_53">
<path id="Vector_14" d="M54.6725 86.0048C54.6725 85.8074 53.3895 86.3009 51.5144 85.61C50.6262 85.2153 49.6393 84.5244 49.1458 83.4388C48.6524 82.3532 48.5537 80.8729 49.0471 79.5899C49.1458 79.2939 49.3432 78.9978 49.5406 78.7017C49.738 78.5043 49.738 78.5043 50.034 78.5043C50.2314 78.603 50.6262 78.8004 51.0209 78.8991C51.317 78.9978 51.7118 79.1952 52.0078 79.2939C53.2908 79.7873 54.3764 80.2808 55.3633 80.5768C57.3371 81.2677 58.5214 81.6624 58.6201 81.5637C58.7188 81.465 57.5345 80.7742 55.6594 79.886C54.7712 79.3926 53.5869 78.8991 52.4026 78.4057C52.1065 78.307 51.8105 78.1096 51.4157 78.0109C51.1196 77.9122 50.8236 77.7148 50.3301 77.6161C50.1327 77.5174 49.738 77.5174 49.4419 77.6161C49.1458 77.7148 48.9485 77.9122 48.7511 78.1096C48.455 78.5043 48.2576 78.8004 48.0602 79.1952C47.3694 80.7742 47.5668 82.5506 48.2576 83.9323C48.9485 85.3139 50.2314 86.0048 51.2183 86.3995C52.3039 86.6956 53.1921 86.6956 53.7843 86.4982C54.3764 86.3008 54.6725 86.1035 54.6725 86.0048Z" fill="#263238"/>
</g>
<g id="Group_54">
<path id="Vector_15" d="M24.0786 26.7908C24.1773 26.7908 23.8812 26.0013 24.0786 24.6196C24.276 23.2379 25.0655 21.2641 26.8419 19.5864C28.6183 17.9087 31.579 16.8231 34.8358 16.9218C38.0925 16.9218 41.6454 18.0074 45.2969 19.2903C47.0733 19.8825 48.9484 20.4746 50.7249 20.8694C52.5013 21.2641 54.2777 21.4615 55.9554 21.4615C59.3109 21.5602 62.3703 20.9681 64.7388 20.2772C67.2061 19.5864 68.9825 18.5995 70.2655 17.9087C70.8576 17.6126 71.3511 17.2178 71.6471 17.0205C71.9432 16.8231 72.1406 16.7244 72.1406 16.7244C72.1406 16.7244 71.4498 17.1192 70.1668 17.7113C68.8838 18.3034 67.1074 19.1916 64.6402 19.8825C62.2716 20.5733 59.3109 21.0668 55.9554 20.8694C54.2777 20.7707 52.6 20.5733 50.8236 20.1786C49.0471 19.7838 47.2707 19.1916 45.4943 18.5995C41.8428 17.4152 38.2899 16.231 34.9345 16.231C31.579 16.1323 28.4209 17.3165 26.6445 19.093C24.7694 20.8694 23.9799 22.9419 23.8812 24.3235C23.7825 26.0013 24.0786 26.7908 24.0786 26.7908Z" fill="#455A64"/>
</g>
<g id="Group_55">
<path id="Vector_16" d="M10.1633 56.9899C10.1633 56.9899 10.262 56.8912 10.3607 56.5951C10.4594 56.2991 10.6568 56.003 10.9529 55.4109C11.4463 54.424 11.9398 52.9436 12.3345 50.9698C12.7293 48.996 13.0253 46.6275 12.828 44.0615C12.6306 41.3969 11.8411 38.6336 11.2489 35.7716C10.6568 32.9096 10.4594 29.9489 11.2489 27.5803C11.6437 26.396 12.2358 25.3104 12.9267 24.4222C13.7162 23.6327 14.6044 23.0406 15.4926 22.7445C17.269 22.1524 18.9467 22.3497 19.9336 22.8432C20.9205 23.3366 21.2166 23.8301 21.3153 23.8301C21.3153 23.8301 21.0192 23.238 20.0323 22.6458C19.0454 22.0537 17.3677 21.7576 15.3939 22.3497C14.407 22.6458 13.4201 23.238 12.6306 24.1262C11.8411 25.0144 11.1502 26.1 10.7555 27.3829C9.96595 29.9489 10.0646 32.9096 10.7555 35.8703C11.3476 38.831 12.2358 41.4956 12.3345 44.0615C12.5319 46.6275 12.3345 48.8973 12.0384 50.8711C11.6437 52.7462 11.1502 54.3253 10.7555 55.3122C10.3607 56.3978 10.1633 56.9899 10.1633 56.9899Z" fill="#455A64"/>
</g>
<g id="Group_56">
<path id="Vector_17" d="M22.4009 25.3104C22.4009 25.3104 22.4009 25.0144 22.4009 24.6196C22.4009 24.1261 22.4009 23.4353 22.3022 22.5471C22.3022 20.7707 22.2035 18.2047 23.0917 15.1454C23.5851 13.665 24.276 12.086 25.4602 10.6056C26.6445 9.22396 28.2236 7.941 30.296 7.44755C32.2698 6.9541 34.5397 7.05279 36.7109 7.74362C38.8821 8.33576 40.9546 9.42134 43.1257 10.6056C45.1982 11.7899 47.2707 12.9742 49.4419 13.8624C51.6131 14.6519 53.8829 15.1454 55.9554 15.1454C58.1266 15.1454 60.1004 14.948 61.9755 14.4545C63.7519 13.9611 65.4297 13.2703 66.8113 12.4807C69.5746 10.9017 71.4498 9.02658 72.5354 7.54624C73.1275 6.85541 73.4236 6.26327 73.7196 5.86851C73.4236 6.26327 73.0288 6.85541 72.4367 7.44755C71.3511 8.82921 69.476 10.6056 66.7127 12.1847C65.331 12.9742 63.7519 13.5663 61.8768 14.0598C60.1004 14.5532 58.1266 14.7506 56.0541 14.7506C53.9816 14.6519 51.8105 14.2572 49.738 13.4676C47.6655 12.5794 45.593 11.3951 43.4218 10.2109C41.3493 9.02658 39.1782 7.941 36.9083 7.25017C34.6384 6.65803 32.3685 6.46065 30.296 7.05279C28.2236 7.64493 26.4472 8.9279 25.2629 10.4082C24.0786 11.8886 23.2891 13.5663 22.8943 15.0467C22.0061 18.2047 22.1048 20.7707 22.2035 22.5471C22.3022 23.4353 22.3022 24.1261 22.4009 24.6196C22.3022 25.113 22.3022 25.3104 22.4009 25.3104Z" fill="#455A64"/>
</g>
</g>
</svg>
