<svg width="117" height="55" viewBox="0 0 117 55" fill="none" xmlns="http://www.w3.org/2000/svg">
<g id="Group">
<g id="freepik--Device--inject-2_1_">
<path id="Vector" d="M71.7537 1.38715H1.36572L14.3786 54.2762H84.7666L71.7537 1.38715Z" fill="#263238" stroke="#263238" stroke-linecap="round" stroke-linejoin="round"/>
<path id="Vector_2" d="M68.5005 4.53888H6.29483L17.7304 51.2231H79.9361L68.5005 4.53888Z" fill="white" stroke="#263238" stroke-linecap="round" stroke-linejoin="round"/>
<path id="Vector_3" d="M68.5005 4.53888H6.29483L7.28066 8.87243H69.5849L68.5005 4.53888Z" fill="#FA9F30" stroke="#263238" stroke-linecap="round" stroke-linejoin="round"/>
<path id="Vector_4" d="M116.313 49.5488H13.2942V54.2763H116.313V49.5488Z" fill="white" stroke="#263238" stroke-linecap="round" stroke-linejoin="round"/>
<path id="Vector_5" d="M116.313 49.5488H59.9238V54.2763H116.313V49.5488Z" fill="#263238" stroke="#263238" stroke-linecap="round" stroke-linejoin="round"/>
</g>
<g id="Group_2">
<path id="Vector_6" d="M61.304 26.2066L62.0926 29.1613H15.4631L14.773 26.2066H61.304Z" fill="#FA9F30"/>
<g id="Group_3">
<g id="Group_4">
<g id="Group_5">
<path id="Vector_7" d="M72.0495 30.6387H15.463L14.0829 24.7293H70.6693L72.0495 30.6387ZM16.0545 29.9493H71.2608L70.1764 25.4188H14.9701L16.0545 29.9493Z" fill="#263238"/>
</g>
</g>
</g>
<g id="Group_6">
<g id="Group_7">
<path id="Vector_8" d="M45.3336 21.9715H38.4328L36.7569 15.1757H38.7285L38.8271 15.6682H37.447L38.9257 21.3806H44.6435L43.1648 15.6682H41.7846L41.5874 15.1757H43.6577L45.3336 21.9715Z" fill="#FA9F30" stroke="#FA9F30" stroke-width="0.2" stroke-miterlimit="10"/>
</g>
<g id="Group_8">
<g id="Group_9">
<path id="Vector_9" d="M41.3903 18.5244H40.7988L39.1229 12.0241H39.7144L41.3903 18.5244Z" fill="#FA9F30" stroke="#FA9F30" stroke-width="0.2" stroke-miterlimit="10"/>
</g>
<g id="Group_10">
<g id="Group_11">
<path id="Vector_10" d="M41.0945 18.9184L38.63 17.7365L38.8272 17.2441L40.996 18.229L42.4747 17.1456L42.9676 17.638L41.0945 18.9184Z" fill="#FA9F30" stroke="#FA9F30" stroke-width="0.2" stroke-miterlimit="10"/>
</g>
</g>
</g>
</g>
</g>
</g>
</svg>
