<svg width="162" height="249" viewBox="0 0 162 249" fill="none" xmlns="http://www.w3.org/2000/svg">
<g id="Group">
<path id="Vector" d="M9.84206 176.36C25.3195 169.071 83.5819 188.178 83.5819 188.178L79.9343 196.255C79.9343 196.255 -10.0716 185.815 9.84206 176.36Z" fill="#263238" stroke="#263238" stroke-linecap="round" stroke-linejoin="round"/>
<path id="Vector_2" d="M79.7371 196.944C74.6108 195.171 69.5831 193.201 64.7526 190.838C49.1765 183.155 18.6159 169.859 7.47606 176.655C-7.70567 186.012 2.44833 211.717 36.8537 228.756C71.3576 245.795 96.8905 246.09 105.073 238.113C112.565 230.824 98.8622 203.543 79.7371 196.944Z" fill="#263238" stroke="#263238" stroke-linecap="round" stroke-linejoin="round"/>
<g id="_x3C_Group_x3E__1_">
<path id="Vector_3" d="M87.328 27.3444C87.328 27.3444 85.7507 33.1553 86.3422 35.2236C87.0323 37.2919 89.4968 39.6556 89.0039 42.1179C88.511 44.5801 85.7507 47.4363 86.0464 49.4061C86.2436 51.2774 89.4968 52.2623 89.4968 52.2623C89.4968 52.2623 94.0317 61.0279 95.3132 64.0811C96.5948 67.1343 97.6792 66.2479 100.637 66.0509C103.693 65.854 110.889 61.8159 115.128 58.3687C119.466 55.0201 116.213 41.4285 110.396 31.481C104.58 21.632 93.3416 19.4652 90.3841 21.435C87.5252 23.2078 87.328 27.3444 87.328 27.3444Z" fill="white"/>
<g id="Group_2">
<g id="Clip path group">
<mask id="mask0_10_255" style="mask-type:luminance" maskUnits="userSpaceOnUse" x="86" y="20" width="32" height="47">
<g id="SVGID_2_">
<path id="Vector_4" d="M87.328 27.3444C87.328 27.3444 85.7507 33.1553 86.3422 35.2236C87.0323 37.2919 89.4968 39.6556 89.0039 42.1179C88.511 44.5801 85.7507 47.4363 86.0464 49.4061C86.2436 51.2774 89.4968 52.2623 89.4968 52.2623C89.4968 52.2623 94.0317 61.0279 95.3132 64.0811C96.5948 67.1343 97.6792 66.2479 100.637 66.0509C103.693 65.854 110.889 61.8159 115.128 58.3687C119.466 55.0201 116.213 41.4285 110.396 31.481C104.58 21.632 93.3416 19.4652 90.3841 21.435C87.5252 23.2078 87.328 27.3444 87.328 27.3444Z" fill="white"/>
</g>
</mask>
<g mask="url(#mask0_10_255)">
<g id="Group_3">
<g id="Group_4">
<path id="Vector_5" d="M104.679 24.8821C102.805 29.3142 100.242 36.9964 101.918 42.9058C104.58 51.8684 106.946 56.6944 103.298 62.8992C102.608 63.9826 102.017 64.9675 101.327 65.7554C104.679 65.066 111.185 61.3234 115.128 58.2702C119.466 54.9216 116.213 41.3299 110.396 31.3825C109.016 28.9202 107.045 26.655 104.679 24.8821Z" fill="#FA9F30"/>
<path id="Vector_6" opacity="0.5" d="M104.679 24.8821C102.805 29.3142 100.242 36.9964 101.918 42.9058C104.58 51.8684 106.946 56.6944 103.298 62.8992C102.608 63.9826 102.017 64.9675 101.327 65.7554C104.679 65.066 111.185 61.3234 115.128 58.2702C119.466 54.9216 116.213 41.3299 110.396 31.3825C109.016 28.9202 107.045 26.655 104.679 24.8821Z" fill="white"/>
</g>
<path id="Vector_7" d="M90.0883 36.9964C90.0883 36.9964 90.6798 33.9432 93.933 36.701" stroke="#263238" stroke-linecap="round" stroke-linejoin="round"/>
<path id="Vector_8" d="M92.75 42.2164C93.0458 43.2998 92.9472 44.1862 92.4543 44.3832C91.9614 44.5801 91.2713 43.7922 90.9755 42.8073C90.6798 41.7239 90.7784 40.8375 91.2713 40.6405C91.7642 40.4436 92.3557 41.133 92.75 42.2164Z" fill="#263238"/>
</g>
</g>
</g>
</g>
<path id="Vector_9" d="M87.328 27.3444C87.328 27.3444 85.7507 33.1553 86.3422 35.2236C87.0323 37.2919 89.4968 39.6556 89.0039 42.1179C88.511 44.5801 85.7507 47.4363 86.0464 49.4061C86.2436 51.2774 89.4968 52.2623 89.4968 52.2623C89.4968 52.2623 94.0317 61.0279 95.3132 64.0811C96.5948 67.1343 97.6792 66.2479 100.637 66.0509C103.693 65.854 110.889 61.8159 115.128 58.3687C119.466 55.0201 116.213 41.4285 110.396 31.481C104.58 21.632 93.3416 19.4652 90.3841 21.435C87.5252 23.2078 87.328 27.3444 87.328 27.3444Z" stroke="#263238" stroke-linecap="round" stroke-linejoin="round"/>
</g>
<g id="Group_5">
<path id="Vector_10" d="M89.4968 159.616C89.4968 159.616 83.4832 154.002 81.6102 153.805C79.7371 153.608 77.0754 154.593 76.3853 154.495C75.6952 154.396 74.1179 153.805 72.9349 154.396C72.0476 154.889 71.1604 155.578 70.4703 156.268C69.1888 156.662 68.0057 157.253 66.8228 157.844C64.8511 158.828 60.0206 163.753 59.2319 164.935C58.4432 166.018 59.0347 166.806 60.3163 166.215C61.4993 165.624 68.1043 161.291 68.1043 161.291C68.1043 161.291 73.625 164.541 74.9065 166.117C76.4839 168.087 78.5541 169.564 80.8215 170.253C83.0889 170.844 85.3563 171.337 87.7223 171.534C87.7223 171.534 92.2571 167.496 91.8628 164.147C91.7642 162.473 90.8769 160.798 89.4968 159.616Z" fill="white" stroke="#263238" stroke-linecap="round" stroke-linejoin="round"/>
<g id="Group_6">
<path id="Vector_11" d="M131.69 82.6957C130.113 83.3852 128.634 84.1731 127.155 85.2565C124.494 87.0293 121.832 90.9689 120.945 99.439C120.057 107.909 120.156 127.903 120.057 136.373C119.86 156.071 93.933 155.874 89.3982 157.647C84.8634 159.419 80.6243 164.344 82.7932 168.677C84.6662 172.519 89.9897 172.912 94.2287 172.715C99.9465 172.42 129.718 170.844 134.056 167.299C140.464 162.177 138.985 155.086 139.774 147.01C142.337 122.387 142.633 96.9768 142.633 96.9768C142.731 90.2795 138.197 84.3701 131.69 82.6957Z" fill="white" stroke="#263238" stroke-linecap="round" stroke-linejoin="round"/>
</g>
</g>
<g id="Group_7">
<path id="Vector_12" d="M108.622 64.0812C108.622 64.0812 112.959 65.46 112.269 69.1041C111.579 72.7483 110.889 76.0969 110.889 76.0969C110.889 76.0969 134.549 76.7863 134.253 75.4075C133.958 74.0286 127.254 51.3759 127.254 51.3759C127.254 51.3759 114.635 50.785 108.622 64.0812Z" fill="white"/>
<g id="Clip path group_2">
<mask id="mask1_10_255" style="mask-type:luminance" maskUnits="userSpaceOnUse" x="108" y="51" width="27" height="26">
<g id="XMLID_11_">
<path id="Vector_13" d="M108.622 64.0812C108.622 64.0812 112.959 65.46 112.269 69.1041C111.579 72.7483 110.889 76.0969 110.889 76.0969C110.889 76.0969 134.549 76.7863 134.253 75.4075C133.958 74.0286 127.254 51.3759 127.254 51.3759C127.254 51.3759 114.635 50.785 108.622 64.0812Z" fill="white"/>
</g>
</mask>
<g mask="url(#mask1_10_255)">
<g id="Group_8">
<path id="Vector_14" d="M129.719 61.4219L112.269 69.1042L111.974 70.877C111.974 70.877 126.564 68.9072 130.803 64.8691L129.719 61.4219Z" fill="#FA9F30"/>
<path id="Vector_15" opacity="0.5" d="M129.719 61.4219L112.269 69.1042L111.974 70.877C111.974 70.877 126.564 68.9072 130.803 64.8691L129.719 61.4219Z" fill="white"/>
</g>
</g>
</g>
<path id="Vector_16" d="M108.622 64.0812C108.622 64.0812 112.959 65.46 112.269 69.1041C111.579 72.7483 110.889 76.0969 110.889 76.0969C110.889 76.0969 134.549 76.7863 134.253 75.4075C133.958 74.0286 127.254 51.3759 127.254 51.3759C127.254 51.3759 114.635 50.785 108.622 64.0812Z" stroke="#263238" stroke-linecap="round" stroke-linejoin="round"/>
</g>
<g id="Group_9">
<path id="Vector_17" d="M86.5393 80.135C79.6385 84.4685 81.7088 89.2945 83.3847 97.5677C87.1308 116.182 92.1585 152.131 90.2855 161.192C88.0181 171.829 81.7088 178.526 73.0335 178.526C68.9916 178.526 68.0058 182.367 63.6682 180.496C54.3028 176.458 47.3034 179.413 43.9516 182.171C30.2486 193.497 47.5992 233.582 67.6115 243.234C85.5535 251.803 104.777 246.189 114.241 242.348C117.593 240.969 121.24 241.658 124.789 242.545C143.422 247.272 158.406 231.218 160.082 216.937C162.645 194.876 155.744 193.891 152.294 169.564C151.9 167.003 151.998 164.344 151.998 161.586C151.9 144.744 158.702 129.084 157.026 103.576C156.336 93.5296 154.759 80.5289 148.055 76.8848C119.663 61.3234 86.8351 79.938 86.5393 80.135Z" fill="#FA9F30"/>
<g id="Clip path group_3">
<mask id="mask2_10_255" style="mask-type:luminance" maskUnits="userSpaceOnUse" x="39" y="70" width="122" height="178">
<g id="XMLID_12_">
<path id="Vector_18" d="M86.5393 80.135C79.6385 84.4685 81.7088 89.2945 83.3847 97.5677C87.1308 116.182 92.1585 152.131 90.2855 161.192C88.0181 171.829 81.7088 178.526 73.0335 178.526C68.9916 178.526 68.0058 182.367 63.6682 180.496C54.3028 176.458 47.3034 179.413 43.9516 182.171C30.2486 193.497 47.5992 233.582 67.6115 243.234C85.5535 251.803 104.777 246.189 114.241 242.348C117.593 240.969 121.24 241.658 124.789 242.545C143.422 247.272 158.406 231.218 160.082 216.937C162.645 194.876 155.744 193.891 152.294 169.564C151.9 167.003 151.998 164.344 151.998 161.586C151.9 144.744 158.702 129.084 157.026 103.576C156.336 93.5296 154.759 80.5289 148.055 76.8848C119.663 61.3234 86.8351 79.938 86.5393 80.135Z" fill="white"/>
</g>
</mask>
<g mask="url(#mask2_10_255)">
<g id="Group_10">
<path id="Vector_19" opacity="0.2" d="M105.073 131.054C103.594 139.721 102.214 148.487 100.735 157.154C100.144 160.601 99.4536 164.344 97.2848 167.102C95.116 169.859 90.8769 171.435 87.9194 169.465C87.6237 165.526 90.9755 162.473 93.44 159.419C99.9465 151.146 100.735 139.918 101.031 129.38C101.327 119.629 100.637 101.212 110.889 95.6964C110.002 107.417 107.044 119.432 105.073 131.054Z" fill="black"/>
<path id="Vector_20" opacity="0.2" d="M111.776 171.632C111.974 171.829 112.072 172.026 112.269 172.223C111.382 173.306 109.903 173.503 108.622 173.799C107.242 173.996 105.763 174.291 104.974 175.375C104.185 176.458 104.777 178.526 106.157 178.428C104.383 178.526 91.5669 178.132 93.7357 173.799C94.8202 171.534 109.115 171.829 111.776 171.632Z" fill="black"/>
<path id="Vector_21" opacity="0.2" d="M85.7506 193.694C86.4407 194.285 87.1307 195.171 86.6378 195.959C86.1449 196.747 84.9619 196.452 84.1732 195.959C80.6243 193.891 77.2725 190.345 76.188 186.307C79.3427 186.406 83.4832 191.724 85.7506 193.694Z" fill="black"/>
<path id="Vector_22" opacity="0.2" d="M72.4419 190.444C72.4419 192.906 73.132 195.368 74.4135 197.436C73.132 195.762 71.8504 194.088 70.6674 192.413C75.0051 201.573 82.2016 209.452 91.074 214.475C87.4264 212.407 84.5676 208.763 83.4832 204.725C83.8775 206.104 87.1307 204.528 86.5392 202.656C86.0463 200.982 83.8775 201.573 82.5959 200.982C78.0611 199.111 75.005 194.285 72.4419 190.444Z" fill="black"/>
<g id="Group_11" opacity="0.2">
<path id="Vector_23" d="M39.5153 196.845C48.2891 212.801 64.3581 224.915 79.5398 235.06C97.5805 246.977 115.325 240.476 131.69 237.128C128.141 239.196 129.028 240.969 132.577 241.658C138.098 241.56 143.126 238.507 147.463 235.158C151.801 231.809 155.547 226.688 160.082 218.119C158.012 231.908 141.45 245.992 127.254 243.037C122.325 241.954 118.184 241.56 114.931 242.545C111.086 243.727 110.298 243.924 103.298 245.893C90.7782 249.439 73.132 249.144 61.4992 239.886C54.2041 234.075 49.0778 226.589 45.3317 218.316C42.2756 211.619 40.4025 204.429 39.5153 197.042V196.845Z" fill="black"/>
</g>
<path id="Vector_24" opacity="0.2" d="M153.477 140.411C153.378 146.419 151.9 152.23 151.604 158.139C151.9 153.116 150.421 147.699 150.421 142.676C150.421 138.835 149.731 130.956 151.998 127.804C153.181 131.645 153.477 136.373 153.477 140.411Z" fill="black"/>
</g>
</g>
</g>
<path id="Vector_25" d="M86.5393 80.135C79.6385 84.4685 81.7088 89.2945 83.3847 97.5677C87.1308 116.182 92.1585 152.131 90.2855 161.192C88.0181 171.829 81.7088 178.526 73.0335 178.526C68.9916 178.526 68.0058 182.367 63.6682 180.496C54.3028 176.458 47.3034 179.413 43.9516 182.171C30.2486 193.497 47.5992 233.582 67.6115 243.234C85.5535 251.803 104.777 246.189 114.241 242.348C117.593 240.969 121.24 241.658 124.789 242.545C143.422 247.272 158.406 231.218 160.082 216.937C162.645 194.876 155.744 193.891 152.294 169.564C151.9 167.003 151.998 164.344 151.998 161.586C151.9 144.744 158.702 129.084 157.026 103.576C156.336 93.5296 154.759 80.5289 148.055 76.8848C119.663 61.3234 86.8351 79.938 86.5393 80.135Z" stroke="#263238" stroke-linecap="round" stroke-linejoin="round"/>
</g>
<g id="Group_12">
<g id="Group_13">
<path id="Vector_26" d="M51.6411 158.927C51.6411 158.927 44.6417 154.495 42.8672 154.593C40.9941 154.79 38.6281 156.169 37.8395 156.268C37.1494 156.366 35.4735 156.071 34.3891 156.859C33.6004 157.548 32.9104 158.336 32.3189 159.222C31.1359 159.912 30.0515 160.601 29.0656 161.389C27.2911 162.768 23.4464 168.48 22.8549 169.662C22.2634 170.844 23.0521 171.534 24.1365 170.746C24.9252 170.155 28.277 167.003 29.9529 165.427C30.5444 164.836 31.4316 164.639 32.2203 164.935C34.0933 165.624 37.4452 167.003 38.5296 167.988C40.4026 169.662 42.67 170.647 45.1346 171.041C47.5006 171.238 49.768 171.238 52.134 171.041C52.134 171.041 55.8801 166.215 54.8943 163.063C54.3028 161.291 53.1198 159.813 51.6411 158.927Z" fill="white"/>
<g id="Clip path group_4">
<mask id="mask3_10_255" style="mask-type:luminance" maskUnits="userSpaceOnUse" x="22" y="154" width="34" height="18">
<g id="XMLID_13_">
<path id="Vector_27" d="M51.6411 158.927C51.6411 158.927 44.6417 154.495 42.8672 154.593C40.9941 154.79 38.6281 156.169 37.8395 156.268C37.1494 156.366 35.4735 156.071 34.3891 156.859C33.6004 157.548 32.9104 158.336 32.3189 159.222C31.1359 159.912 30.0515 160.601 29.0656 161.389C27.2911 162.768 23.4464 168.48 22.8549 169.662C22.2634 170.844 23.0521 171.534 24.1365 170.746C24.9252 170.155 28.277 167.003 29.9529 165.427C30.5444 164.836 31.4316 164.639 32.2203 164.935C34.0933 165.624 37.4452 167.003 38.5296 167.988C40.4026 169.662 42.67 170.647 45.1346 171.041C47.5006 171.238 49.768 171.238 52.134 171.041C52.134 171.041 55.8801 166.215 54.8943 163.063C54.3028 161.291 53.1198 159.813 51.6411 158.927Z" fill="white"/>
</g>
</mask>
<g mask="url(#mask3_10_255)">
<g id="Group_14">
<path id="Vector_28" d="M96.6934 138.047C94.1302 144.843 90.0883 151.343 84.272 155.677C79.9343 158.927 74.7094 160.897 69.4846 162.571C64.7526 164.147 59.922 165.624 55.0915 167.003C53.5142 167.397 51.7397 167.791 50.4581 166.905C49.2751 166.117 48.9794 164.442 49.2751 163.063C49.5709 161.685 50.4581 160.503 51.3454 159.321C49.078 160.01 47.1063 161.783 46.3176 164.048C45.9233 165.23 45.7261 166.708 44.6417 167.496C43.4587 168.382 41.4871 167.791 40.6984 166.511C39.9098 165.23 40.0083 163.556 40.6984 162.177C41.3885 160.798 42.4729 159.715 43.4587 158.631C42.3743 158.336 41.2899 159.321 40.6984 160.306C40.1069 161.291 39.614 162.571 38.5296 162.965C37.248 163.556 35.7693 162.669 34.3891 162.374C31.9246 161.783 29.2628 162.866 27.2912 164.639C25.4181 166.412 24.2351 168.776 23.2493 171.14C24.3337 168.48 26.6997 166.511 29.46 165.821C32.2203 165.23 35.2764 166.018 37.3466 167.889C38.3324 168.776 39.1211 169.958 40.3041 170.549C41.4871 171.14 42.7687 171.14 44.1488 171.14C57.0631 171.14 69.8789 169.17 82.3003 165.427C87.5252 163.851 93.0458 161.685 96.2005 157.154C98.665 153.707 99.4537 149.275 100.045 145.04C100.637 140.608 101.031 136.077 101.228 131.547C101.425 127.509 102.017 122.88 101.327 118.841C99.9466 125.44 99.0594 131.842 96.6934 138.047Z" fill="#FA9F30"/>
<path id="Vector_29" opacity="0.5" d="M96.6934 138.047C94.1302 144.843 90.0883 151.343 84.272 155.677C79.9343 158.927 74.7094 160.897 69.4846 162.571C64.7526 164.147 59.922 165.624 55.0915 167.003C53.5142 167.397 51.7397 167.791 50.4581 166.905C49.2751 166.117 48.9794 164.442 49.2751 163.063C49.5709 161.685 50.4581 160.503 51.3454 159.321C49.078 160.01 47.1063 161.783 46.3176 164.048C45.9233 165.23 45.7261 166.708 44.6417 167.496C43.4587 168.382 41.4871 167.791 40.6984 166.511C39.9098 165.23 40.0083 163.556 40.6984 162.177C41.3885 160.798 42.4729 159.715 43.4587 158.631C42.3743 158.336 41.2899 159.321 40.6984 160.306C40.1069 161.291 39.614 162.571 38.5296 162.965C37.248 163.556 35.7693 162.669 34.3891 162.374C31.9246 161.783 29.2628 162.866 27.2912 164.639C25.4181 166.412 24.2351 168.776 23.2493 171.14C24.3337 168.48 26.6997 166.511 29.46 165.821C32.2203 165.23 35.2764 166.018 37.3466 167.889C38.3324 168.776 39.1211 169.958 40.3041 170.549C41.4871 171.14 42.7687 171.14 44.1488 171.14C57.0631 171.14 69.8789 169.17 82.3003 165.427C87.5252 163.851 93.0458 161.685 96.2005 157.154C98.665 153.707 99.4537 149.275 100.045 145.04C100.637 140.608 101.031 136.077 101.228 131.547C101.425 127.509 102.017 122.88 101.327 118.841C99.9466 125.44 99.0594 131.842 96.6934 138.047Z" fill="white"/>
</g>
</g>
</g>
<path id="Vector_30" d="M51.6411 158.927C51.6411 158.927 44.6417 154.495 42.8672 154.593C40.9941 154.79 38.6281 156.169 37.8395 156.268C37.1494 156.366 35.4735 156.071 34.3891 156.859C33.6004 157.548 32.9104 158.336 32.3189 159.222C31.1359 159.912 30.0515 160.601 29.0656 161.389C27.2911 162.768 23.4464 168.48 22.8549 169.662C22.2634 170.844 23.0521 171.534 24.1365 170.746C24.9252 170.155 28.277 167.003 29.9529 165.427C30.5444 164.836 31.4316 164.639 32.2203 164.935C34.0933 165.624 37.4452 167.003 38.5296 167.988C40.4026 169.662 42.67 170.647 45.1346 171.041C47.5006 171.238 49.768 171.238 52.134 171.041C52.134 171.041 55.8801 166.215 54.8943 163.063C54.3028 161.291 53.1198 159.813 51.6411 158.927Z" stroke="#263238" stroke-linecap="round" stroke-linejoin="round"/>
</g>
<g id="Group_15">
<path id="Vector_31" d="M101.524 99.9314C101.031 93.2341 94.8203 80.135 88.2152 79.0516C86.7365 79.8395 85.2578 80.8244 83.8776 81.9078C81.3145 83.8776 80.6244 87.9157 80.3286 96.4843C80.1315 104.954 81.7088 124.455 80.6244 142.479C80.6244 142.775 55.4858 156.366 51.1482 158.533C46.8105 160.601 43.9516 164.639 46.4162 168.776C48.585 172.518 53.317 171.632 57.556 171.14C63.2738 170.352 90.0883 164.836 94.9188 159.813C104.777 149.767 101.524 99.9314 101.524 99.9314Z" fill="white"/>
<g id="Clip path group_5">
<mask id="mask4_10_255" style="mask-type:luminance" maskUnits="userSpaceOnUse" x="45" y="79" width="58" height="93">
<g id="XMLID_14_">
<path id="Vector_32" d="M101.524 99.9314C101.031 93.2341 94.8203 80.135 88.2152 79.0516C86.7365 79.8395 85.2578 80.8244 83.8776 81.9078C81.3145 83.8776 80.6244 87.9157 80.3286 96.4843C80.1315 104.954 81.7088 124.455 80.6244 142.479C80.6244 142.775 55.4858 156.366 51.1482 158.533C46.8105 160.601 43.9516 164.639 46.4162 168.776C48.585 172.518 53.317 171.632 57.556 171.14C63.2738 170.352 90.0883 164.836 94.9188 159.813C104.777 149.767 101.524 99.9314 101.524 99.9314Z" fill="white"/>
</g>
</mask>
<g mask="url(#mask4_10_255)">
<g id="Group_16">
<path id="Vector_33" d="M96.6934 138.047C94.1302 144.843 90.0883 151.343 84.272 155.677C79.9343 158.927 74.7094 160.897 69.4846 162.571C64.7526 164.147 59.922 165.624 55.0915 167.003C53.5142 167.397 51.7397 167.791 50.4581 166.904C49.2751 166.117 48.9794 164.442 49.2751 163.063C49.5709 161.685 50.4581 160.503 51.3454 159.321C49.078 160.01 47.1063 161.783 46.3176 164.048C45.9233 165.23 45.7261 166.708 44.6417 167.495C43.4587 168.382 41.4871 167.791 40.6984 166.511C39.9098 165.23 40.0083 163.556 40.6984 162.177C41.3885 160.798 42.4729 159.715 43.4587 158.631C42.3743 158.336 41.2899 159.321 40.6984 160.306C40.1069 161.291 39.614 162.571 38.5296 162.965C37.248 163.556 35.7693 162.669 34.3891 162.374C31.9246 161.783 29.2628 162.866 27.2912 164.639C25.4181 166.412 24.2351 168.776 23.2493 171.14C24.3337 168.48 26.6997 166.511 29.46 165.821C32.2203 165.23 35.2764 166.018 37.3466 167.889C38.3324 168.776 39.1211 169.958 40.3041 170.549C41.4871 171.14 42.7687 171.14 44.1488 171.14C57.0631 171.14 69.8789 169.17 82.3003 165.427C87.5252 163.851 93.0458 161.685 96.2005 157.154C98.665 153.707 99.4537 149.275 100.045 145.04C100.637 140.608 101.031 136.077 101.228 131.547C101.425 127.509 102.017 122.88 101.327 118.841C99.9466 125.44 99.0594 131.842 96.6934 138.047Z" fill="#FA9F30"/>
<path id="Vector_34" opacity="0.5" d="M96.6934 138.047C94.1302 144.843 90.0883 151.343 84.272 155.677C79.9343 158.927 74.7094 160.897 69.4846 162.571C64.7526 164.147 59.922 165.624 55.0915 167.003C53.5142 167.397 51.7397 167.791 50.4581 166.904C49.2751 166.117 48.9794 164.442 49.2751 163.063C49.5709 161.685 50.4581 160.503 51.3454 159.321C49.078 160.01 47.1063 161.783 46.3176 164.048C45.9233 165.23 45.7261 166.708 44.6417 167.495C43.4587 168.382 41.4871 167.791 40.6984 166.511C39.9098 165.23 40.0083 163.556 40.6984 162.177C41.3885 160.798 42.4729 159.715 43.4587 158.631C42.3743 158.336 41.2899 159.321 40.6984 160.306C40.1069 161.291 39.614 162.571 38.5296 162.965C37.248 163.556 35.7693 162.669 34.3891 162.374C31.9246 161.783 29.2628 162.866 27.2912 164.639C25.4181 166.412 24.2351 168.776 23.2493 171.14C24.3337 168.48 26.6997 166.511 29.46 165.821C32.2203 165.23 35.2764 166.018 37.3466 167.889C38.3324 168.776 39.1211 169.958 40.3041 170.549C41.4871 171.14 42.7687 171.14 44.1488 171.14C57.0631 171.14 69.8789 169.17 82.3003 165.427C87.5252 163.851 93.0458 161.685 96.2005 157.154C98.665 153.707 99.4537 149.275 100.045 145.04C100.637 140.608 101.031 136.077 101.228 131.547C101.425 127.509 102.017 122.88 101.327 118.841C99.9466 125.44 99.0594 131.842 96.6934 138.047Z" fill="white"/>
</g>
</g>
</g>
<path id="Vector_35" d="M101.524 99.9314C101.031 93.2341 94.8203 80.135 88.2152 79.0516C86.7365 79.8395 85.2578 80.8244 83.8776 81.9078C81.3145 83.8776 80.6244 87.9157 80.3286 96.4843C80.1315 104.954 81.7088 124.455 80.6244 142.479C80.6244 142.775 55.4858 156.366 51.1482 158.533C46.8105 160.601 43.9516 164.639 46.4162 168.776C48.585 172.518 53.317 171.632 57.556 171.14C63.2738 170.352 90.0883 164.836 94.9188 159.813C104.777 149.767 101.524 99.9314 101.524 99.9314Z" stroke="#263238" stroke-linecap="round" stroke-linejoin="round"/>
</g>
</g>
<g id="Group_17">
<path id="Vector_36" d="M150.027 41.6255C154.266 33.3523 150.519 22.7154 144.999 15.2302C135.929 2.91892 116.706 -0.7252 102.313 1.2446C95.5103 2.13101 88.8067 5.47966 85.2578 11.2906C81.7088 17.1015 82.596 25.7686 88.2152 29.7082C93.4401 33.3523 101.721 32.7614 104.974 38.3753C108.326 44.2847 102.707 51.3759 102.608 58.2702C102.51 62.6038 104.777 66.6419 104.777 70.9754C104.679 70.877 137.999 65.066 150.027 41.6255Z" fill="#263238" stroke="#263238" stroke-linecap="round" stroke-linejoin="round"/>
</g>
<g id="Group_18">
<path id="Vector_37" d="M53.1198 157.647C53.1198 157.647 53.2184 158.631 49.1765 155.972C45.3318 153.51 35.2763 162.67 39.2196 168.874L39.5154 169.958C39.9097 171.435 42.7686 170.45 44.1488 170.943C46.4162 171.731 47.7963 171.632 49.6694 171.435C52.6269 171.14 44.3459 166.215 53.1198 157.647Z" fill="white"/>
<g id="Clip path group_6">
<mask id="mask5_10_255" style="mask-type:luminance" maskUnits="userSpaceOnUse" x="38" y="155" width="16" height="17">
<g id="XMLID_15_">
<path id="Vector_38" d="M53.1198 157.647C53.1198 157.647 53.2184 158.631 49.1765 155.972C45.3318 153.51 35.2763 162.67 39.2196 168.874L39.5154 169.958C39.9097 171.435 42.7686 170.45 44.1488 170.943C46.4162 171.731 47.7963 171.632 49.6694 171.435C52.6269 171.14 44.3459 166.215 53.1198 157.647Z" fill="white"/>
</g>
</mask>
<g mask="url(#mask5_10_255)">
<g id="Group_19">
<path id="Vector_39" d="M96.6933 138.047C94.1302 144.843 90.0883 151.343 84.2719 155.677C79.9343 158.927 74.7094 160.897 69.4845 162.571C64.7526 164.147 59.922 165.624 55.0915 167.003C53.5141 167.397 51.7396 167.791 50.4581 166.905C49.2751 166.117 48.9793 164.442 49.2751 163.064C49.5708 161.685 50.4581 160.503 51.3453 159.321C49.0779 160.01 47.1063 161.783 46.3176 164.048C45.9233 165.23 45.7261 166.708 44.6417 167.496C43.4587 168.382 41.4871 167.791 40.6984 166.511C39.9097 165.23 40.0083 163.556 40.6984 162.177C41.3885 160.798 42.4729 159.715 43.4587 158.631C42.3743 158.336 41.2899 159.321 40.6984 160.306C40.1069 161.291 39.614 162.571 38.5296 162.965C37.248 163.556 35.7693 162.67 34.3891 162.374C31.9245 161.783 29.2628 162.867 27.2911 164.639C25.4181 166.412 24.2351 168.776 23.2493 171.14C24.3337 168.48 26.6996 166.511 29.46 165.821C32.2203 165.23 35.2763 166.018 37.3466 167.89C38.3324 168.776 39.1211 169.958 40.3041 170.549C41.487 171.14 42.7686 171.14 44.1488 171.14C57.0631 171.14 69.8789 169.17 82.3003 165.427C87.5251 163.851 93.0458 161.685 96.2004 157.154C98.665 153.707 99.4537 149.275 100.045 145.04C100.637 140.608 101.031 136.077 101.228 131.547C101.425 127.509 102.017 122.88 101.327 118.842C99.9465 125.44 99.0593 131.842 96.6933 138.047Z" fill="#FA9F30"/>
<path id="Vector_40" opacity="0.5" d="M96.6933 138.047C94.1302 144.843 90.0883 151.343 84.2719 155.677C79.9343 158.927 74.7094 160.897 69.4845 162.571C64.7526 164.147 59.922 165.624 55.0915 167.003C53.5141 167.397 51.7396 167.791 50.4581 166.905C49.2751 166.117 48.9793 164.442 49.2751 163.064C49.5708 161.685 50.4581 160.503 51.3453 159.321C49.0779 160.01 47.1063 161.783 46.3176 164.048C45.9233 165.23 45.7261 166.708 44.6417 167.496C43.4587 168.382 41.4871 167.791 40.6984 166.511C39.9097 165.23 40.0083 163.556 40.6984 162.177C41.3885 160.798 42.4729 159.715 43.4587 158.631C42.3743 158.336 41.2899 159.321 40.6984 160.306C40.1069 161.291 39.614 162.571 38.5296 162.965C37.248 163.556 35.7693 162.67 34.3891 162.374C31.9245 161.783 29.2628 162.867 27.2911 164.639C25.4181 166.412 24.2351 168.776 23.2493 171.14C24.3337 168.48 26.6996 166.511 29.46 165.821C32.2203 165.23 35.2763 166.018 37.3466 167.89C38.3324 168.776 39.1211 169.958 40.3041 170.549C41.487 171.14 42.7686 171.14 44.1488 171.14C57.0631 171.14 69.8789 169.17 82.3003 165.427C87.5251 163.851 93.0458 161.685 96.2004 157.154C98.665 153.707 99.4537 149.275 100.045 145.04C100.637 140.608 101.031 136.077 101.228 131.547C101.425 127.509 102.017 122.88 101.327 118.842C99.9465 125.44 99.0593 131.842 96.6933 138.047Z" fill="white"/>
</g>
</g>
</g>
<path id="Vector_41" d="M53.1198 157.647C53.1198 157.647 53.2184 158.631 49.1765 155.972C45.3318 153.51 35.2763 162.67 39.2196 168.874L39.5154 169.958C39.9097 171.435 42.7686 170.45 44.1488 170.943C46.4162 171.731 47.7963 171.632 49.6694 171.435C52.6269 171.14 44.3459 166.215 53.1198 157.647Z" stroke="#263238" stroke-linecap="round" stroke-linejoin="round"/>
</g>
<g id="Group_20">
<path id="Vector_42" d="M97.5805 6.07056C94.7216 9.61619 94.9188 14.8362 96.4961 19.1697C98.0734 23.5033 100.932 27.1474 103.003 31.284C105.073 35.4206 107.537 39.6556 105.861 43.8907C108.425 34.7311 108.72 24.9806 106.749 15.7226" stroke="#757575" stroke-linecap="round" stroke-linejoin="round"/>
<path id="Vector_43" d="M110.298 3.21442C125.381 17.6924 129.916 31.875 130.606 44.8756" stroke="#757575" stroke-linecap="round" stroke-linejoin="round"/>
<path id="Vector_44" d="M102.707 10.4041C106.354 19.5637 107.537 29.7081 106.059 39.4586" stroke="#757575" stroke-linecap="round" stroke-linejoin="round"/>
<path id="Vector_45" d="M89.4968 9.32074C87.328 11.2905 85.8493 14.1467 85.4549 17.003" stroke="#757575" stroke-linecap="round" stroke-linejoin="round"/>
<path id="Vector_46" d="M93.2429 8.13885C91.6656 11.4875 91.567 15.4271 92.9472 18.8742" stroke="#757575" stroke-linecap="round" stroke-linejoin="round"/>
<path id="Vector_47" d="M125.677 7.74487C133.366 12.2754 138.69 20.7456 139.38 29.6096" stroke="#757575" stroke-linecap="round" stroke-linejoin="round"/>
<path id="Vector_48" d="M136.619 10.3057C138.394 11.4875 139.873 13.0634 140.858 14.9347" stroke="#757575" stroke-linecap="round" stroke-linejoin="round"/>
</g>
<g id="Group_21">
<path id="Vector_49" d="M69.2873 185.815C71.6533 197.732 79.4413 208.467 89.9896 214.475" stroke="#263238" stroke-linecap="round" stroke-linejoin="round"/>
<path id="Vector_50" d="M75.0051 182.17C75.1037 188.572 79.8357 194.679 86.0464 196.451" stroke="#263238" stroke-linecap="round" stroke-linejoin="round"/>
<path id="Vector_51" d="M112.861 171.337C107.242 172.026 101.622 172.814 96.0033 173.503C95.2146 173.602 94.2288 173.799 93.8345 174.587C93.5387 175.276 93.933 176.064 94.4259 176.458C95.0174 176.95 95.7075 177.049 96.3976 177.246C103.693 178.92 111.185 179.905 118.677 180.102" stroke="#263238" stroke-linecap="round" stroke-linejoin="round"/>
<path id="Vector_52" d="M111.579 243.431C116.804 241.067 122.916 238.999 128.634 238.31" stroke="#263238" stroke-linecap="round" stroke-linejoin="round"/>
<g id="Vector_53">
<path d="M52.0354 158.336C50.8524 158.73 49.768 159.518 48.8807 160.404C47.9935 161.291 47.2048 162.374 46.4162 163.26C46.219 163.457 46.1204 163.556 45.9233 163.654C45.7261 163.753 45.4303 163.753 45.3318 163.556C45.1346 163.359 45.2332 163.063 45.3318 162.768C45.7261 161.586 46.5147 160.404 47.5006 159.616" fill="white"/>
<path d="M52.0354 158.336C50.8524 158.73 49.768 159.518 48.8807 160.404C47.9935 161.291 47.2048 162.374 46.4162 163.26C46.219 163.457 46.1204 163.556 45.9233 163.654C45.7261 163.753 45.4303 163.753 45.3318 163.556C45.1346 163.359 45.2332 163.063 45.3318 162.768C45.7261 161.586 46.5147 160.404 47.5006 159.616" stroke="#263238" stroke-linecap="round" stroke-linejoin="round"/>
</g>
<g id="Vector_54">
<path d="M107.34 98.1586C105.566 104.462 103.693 110.864 101.918 117.167L107.34 98.1586Z" fill="white"/>
<path d="M107.34 98.1586C105.566 104.462 103.693 110.864 101.918 117.167" stroke="#263238" stroke-linecap="round" stroke-linejoin="round"/>
</g>
<g id="Group_22">
<path id="Vector_55" d="M152.195 125.539C149.928 142.971 151.407 164.245 154.463 180.496" stroke="#263238" stroke-linecap="round" stroke-linejoin="round"/>
<path id="Vector_56" d="M152.984 119.235C152.885 120.22 152.787 121.107 152.688 122.092" stroke="#263238" stroke-linecap="round" stroke-linejoin="round"/>
</g>
</g>
</g>
</svg>
