<svg width="116" height="149" viewBox="0 0 116 149" fill="none" xmlns="http://www.w3.org/2000/svg">
<g id="Group">
<g id="Group_2">
<g id="Group_3">
<path id="Vector" d="M50.26 78.2152C50.1614 78.3137 50.9501 79.1016 48.3869 79.2001C42.1762 79.4956 31.135 79.1016 26.9945 73.4877C21.0795 65.4115 34.6839 66.101 33.3038 61.6689C31.9236 57.2369 17.3334 60.881 14.4745 54.5776C11.6156 48.2743 22.2625 49.4562 21.7696 46.206C21.2767 42.9558 10.1369 47.1909 6.39072 40.4936C2.64458 33.7963 12.4043 37.3419 10.8269 34.5842C9.24961 31.8265 -3.1718 20.2047 1.85591 17.644C6.88363 15.0832 18.5164 27.099 22.3611 28.4778C26.2058 29.7582 27.0931 17.8409 32.1208 21.7805C37.1485 25.7201 33.8953 43.7438 39.8102 45.9106C44.1479 47.5849 41.7819 41.0845 47.2039 41.38C54.6962 41.577 57.1608 66.6919 50.26 78.2152Z" fill="#FA9F30"/>
<g id="Group_4" opacity="0.1">
<path id="Vector_2" d="M50.26 78.2152C50.1614 78.3137 50.9501 79.1016 48.3869 79.2001C42.1762 79.4956 31.135 79.1016 26.9945 73.4877C21.0795 65.4115 34.6839 66.101 33.3038 61.6689C31.9236 57.2369 17.3334 60.881 14.4745 54.5776C11.6156 48.2743 22.2625 49.4562 21.7696 46.206C21.2767 42.9558 10.1369 47.1909 6.39072 40.4936C2.64458 33.7963 12.4043 37.3419 10.8269 34.5842C9.24961 31.8265 -3.1718 20.2047 1.85591 17.644C6.88363 15.0832 18.5164 27.099 22.3611 28.4778C26.2058 29.7582 27.0931 17.8409 32.1208 21.7805C37.1485 25.7201 33.8953 43.7438 39.8102 45.9106C44.1479 47.5849 41.7819 41.0845 47.2039 41.38C54.6962 41.577 57.1608 66.6919 50.26 78.2152Z" fill="black"/>
</g>
</g>
<g id="Group_5">
<path id="Vector_3" d="M68.6949 79.2001C73.7227 80.185 83.1866 77.1319 87.4257 73.1923C91.6647 69.2527 81.5107 70.3361 83.1866 66.8889C84.8625 63.4418 96.1995 68.3663 99.3541 63.5403C102.509 58.7143 93.7349 58.3203 94.5236 55.7596C95.3123 53.1988 104.185 55.3656 108.029 50.3426C111.874 45.3196 103.495 46.994 105.171 44.9257C106.846 42.8574 118.381 35.0767 114.634 32.319C110.888 29.5612 99.8471 37.8344 96.5938 38.4253C93.3406 39.0163 93.8335 31.925 89.2987 34.4857C84.6653 37.0465 84.9611 52.1154 79.9334 53.1003C76.1872 53.8882 78.849 47.4864 74.5113 48.4713C66.9205 50.1456 66.6247 78.8062 68.6949 79.2001Z" fill="#FA9F30"/>
</g>
<g id="Group_6">
<path id="Vector_4" d="M100.931 41.0846C100.931 41.0846 71.2581 61.078 62.9772 97.5193" stroke="#263238" stroke-miterlimit="10" stroke-linecap="round" stroke-linejoin="round"/>
<path id="Vector_5" d="M99.3541 52.5095C93.6363 51.3276 88.8058 52.6079 88.4115 52.6079" stroke="#263238" stroke-miterlimit="10" stroke-linecap="round" stroke-linejoin="round"/>
<path id="Vector_6" d="M92.3548 37.736C92.3548 37.736 85.0597 45.5166 84.0739 56.646" stroke="#263238" stroke-miterlimit="10" stroke-linecap="round" stroke-linejoin="round"/>
<path id="Vector_7" d="M79.3419 62.2599C79.3419 62.2599 84.271 58.8128 90.186 61.5705" stroke="#263238" stroke-miterlimit="10" stroke-linecap="round" stroke-linejoin="round"/>
<path id="Vector_8" d="M72.8354 71.6165C72.8354 71.6165 70.9624 65.7071 73.1312 57.9264" stroke="#263238" stroke-miterlimit="10" stroke-linecap="round" stroke-linejoin="round"/>
</g>
<g id="Group_7">
<g id="Group_8">
<path id="Vector_9" d="M60.5126 76.541C66.5261 74.8667 75.1028 66.298 77.4688 59.7977C79.9334 53.1004 69.4836 59.8962 69.385 55.2672C69.2864 50.6381 84.3696 49.6532 85.1582 42.7589C85.9469 35.8646 76.1872 40.2967 75.6943 36.948C75.2014 33.6979 85.8483 31.2356 87.3271 23.6519C88.8058 16.0682 80.6234 22.47 81.2149 19.4168C81.905 16.2652 90.0874 1.39318 84.5667 0.506774C79.0461 -0.478125 71.6524 14.6893 68.3992 17.0531C65.146 19.4168 61.8927 11.5376 58.2452 16.8561C54.6962 22.1746 63.2729 38.3269 58.3438 42.168C54.6962 45.1227 54.1047 36.7511 49.9642 40.0997C42.4719 45.9106 58.048 77.1319 60.5126 76.541Z" fill="#FA9F30"/>
</g>
<g id="Group_9" opacity="0.2">
<path id="Vector_10" d="M60.5126 76.541C66.5261 74.8667 75.1028 66.298 77.4688 59.7977C79.9334 53.1004 69.4836 59.8962 69.385 55.2672C69.2864 50.6381 84.3696 49.6532 85.1582 42.7589C85.9469 35.8646 76.1872 40.2967 75.6943 36.948C75.2014 33.6979 85.8483 31.2356 87.3271 23.6519C88.8058 16.0682 80.6234 22.47 81.2149 19.4168C81.905 16.2652 90.0874 1.39318 84.5667 0.506774C79.0461 -0.478125 71.6524 14.6893 68.3992 17.0531C65.146 19.4168 61.8927 11.5376 58.2452 16.8561C54.6962 22.1746 63.2729 38.3269 58.3438 42.168C54.6962 45.1227 54.1047 36.7511 49.9642 40.0997C42.4719 45.9106 58.048 77.1319 60.5126 76.541Z" fill="white"/>
</g>
</g>
<g id="Group_10">
<path id="Vector_11" d="M64.9488 148.045C64.653 148.143 53.2175 148.143 52.9217 148.045C44.5422 146.173 14.9674 136.521 41.6833 105.004H75.7929C102.509 136.521 73.3283 146.173 64.9488 148.045Z" fill="white" stroke="#263238" stroke-miterlimit="10"/>
<g id="Group_11">
<g id="Group_12">
<g id="Group_13">
<g id="Group_14">
<path id="Vector_12" d="M25.6143 41.2815C25.6143 41.2815 49.7671 57.7293 55.0905 99.883" stroke="#263238" stroke-miterlimit="10" stroke-linecap="round" stroke-linejoin="round"/>
<path id="Vector_13" d="M21.8682 46.403C27.6845 45.1226 31.2335 46.3045 31.2335 46.3045" stroke="#263238" stroke-miterlimit="10" stroke-linecap="round" stroke-linejoin="round"/>
<path id="Vector_14" d="M28.4732 29.0688C28.4732 29.0688 35.7683 38.7208 35.7683 51.426" stroke="#263238" stroke-miterlimit="10" stroke-linecap="round" stroke-linejoin="round"/>
<path id="Vector_15" d="M42.9649 62.0629C42.9649 62.0629 37.74 57.1384 30.8392 59.6992" stroke="#263238" stroke-miterlimit="10" stroke-linecap="round" stroke-linejoin="round"/>
<path id="Vector_16" d="M46.711 69.5482C46.711 69.5482 49.4713 63.1463 47.9926 54.0853" stroke="#263238" stroke-miterlimit="10" stroke-linecap="round" stroke-linejoin="round"/>
</g>
</g>
<g id="Group_15">
<path id="Vector_17" d="M74.5113 22.1746C74.5113 22.1746 54.3019 50.4412 61.0055 101.754" stroke="#263238" stroke-miterlimit="10" stroke-linecap="round" stroke-linejoin="round"/>
<path id="Vector_18" d="M86.3413 26.2126C75.7929 26.2126 70.1737 30.2507 69.878 30.5461" stroke="#263238" stroke-miterlimit="10" stroke-linecap="round" stroke-linejoin="round"/>
<path id="Vector_19" d="M66.5261 38.3269C63.7658 30.2507 63.963 22.1745 64.7516 16.5606" stroke="#263238" stroke-miterlimit="10" stroke-linecap="round" stroke-linejoin="round"/>
<path id="Vector_20" d="M62.2871 53.8883C62.2871 53.8883 66.5261 45.9106 75.5958 45.8121" stroke="#263238" stroke-miterlimit="10" stroke-linecap="round" stroke-linejoin="round"/>
<path id="Vector_21" d="M60.8083 64.2298C60.8083 64.2298 55.1891 57.9264 53.4146 46.6985" stroke="#263238" stroke-miterlimit="10" stroke-linecap="round" stroke-linejoin="round"/>
</g>
</g>
<path id="Vector_22" d="M40.9932 105.103H76.8773L79.0461 94.86H38.8244L40.9932 105.103Z" fill="white" stroke="#263238" stroke-miterlimit="10"/>
</g>
</g>
</g>
<g id="Group_16">
<path id="Vector_23" d="M79.0462 117.71C80.7221 121.255 81.4121 125.195 81.1164 129.135C80.9192 131.892 79.8348 134.945 77.3703 136.127" stroke="#263238" stroke-linecap="round" stroke-linejoin="round"/>
<path id="Vector_24" d="M75.0042 111.702C75.8915 112.588 76.6801 113.672 77.3702 114.755" stroke="#263238" stroke-linecap="round" stroke-linejoin="round"/>
</g>
</g>
</svg>
