<svg width="118" height="254" viewBox="0 0 118 254" fill="none" xmlns="http://www.w3.org/2000/svg">
<g id="Group">
<g id="Group_2">
<path id="Vector" d="M105.376 54.5592C105.376 66.6735 95.9116 76.6209 83.9831 77.3104C83.4902 77.3104 22.7633 77.3104 22.1718 77.3104C10.3418 76.424 1.07507 66.575 1.07507 54.5592C1.07507 42.6419 10.2433 32.8914 21.876 31.8081C22.8618 14.6708 37.0577 0.980713 54.5069 0.980713C72.0546 0.980713 86.3491 14.7693 87.1377 32.1035C97.4889 34.2703 105.376 43.5283 105.376 54.5592Z" fill="white" stroke="#263238" stroke-miterlimit="10"/>
<path id="Vector_2" d="M29.0726 22.747C33.5088 12.3071 43.86 4.92035 55.9856 4.92035" stroke="#263238" stroke-miterlimit="10" stroke-linecap="round" stroke-linejoin="round"/>
<path id="Vector_3" d="M26.8051 32.399C26.9037 30.7247 27.1009 28.9519 27.4952 27.376" stroke="#263238" stroke-miterlimit="10" stroke-linecap="round" stroke-linejoin="round"/>
</g>
<g id="Group_3">
<g id="Group_4">
<g id="Group_5">
<g id="Group_6">
<path id="Vector_4" d="M54.3097 188.505C55.7884 191.953 57.3658 195.203 58.9431 198.453" stroke="#263238" stroke-miterlimit="10" stroke-linecap="round" stroke-linejoin="round"/>
<path id="Vector_5" d="M21.6788 91.8869C21.6788 91.8869 33.4102 138.177 50.3664 179.247" stroke="#263238" stroke-miterlimit="10" stroke-linecap="round" stroke-linejoin="round"/>
</g>
<path id="Vector_6" d="M88.1235 126.358C88.2221 128.131 88.2221 129.412 88.3207 130.987" stroke="#263238" stroke-miterlimit="10" stroke-linecap="round" stroke-linejoin="round"/>
<path id="Vector_7" d="M88.1236 83.8107C88.025 84.5986 87.4335 105.282 87.8278 121.828" stroke="#263238" stroke-miterlimit="10" stroke-linecap="round" stroke-linejoin="round"/>
</g>
</g>
<path id="Vector_8" d="M116.713 220.416L95.7144 252.327L55.4927 222.583L75.505 221.795L74.2234 218.643C55.1969 172.353 41.2968 124.192 32.9173 74.8482L28.8754 51.2106L78.2653 50.7181L78.0681 58.2034C77.9695 113.062 84.5746 167.724 97.7847 221.007L116.713 220.416Z" fill="#FA9F30" stroke="#263238" stroke-miterlimit="10"/>
</g>
<g id="Group_7">
<path id="Vector_9" d="M51.0565 52.7864H69.3929L69.4914 59.1883C69.59 71.795 70.3787 84.3032 71.8574 96.8114L44.2543 98.1903L42.7755 90.0156C41.3954 82.0379 40.6067 73.9618 40.4095 65.8856L51.0565 52.7864Z" fill="white" stroke="#263238" stroke-miterlimit="10" stroke-linecap="round" stroke-linejoin="round"/>
<path id="Vector_10" d="M52.2395 65.5901L40.4095 65.7871L51.0565 52.7864L52.2395 65.5901Z" fill="white" stroke="#263238" stroke-miterlimit="10" stroke-linecap="round" stroke-linejoin="round"/>
</g>
<g id="Group_8">
<path id="Vector_11" d="M81.7157 237.258C79.5469 237.258 77.7724 236.569 77.6739 236.47C77.5753 236.47 74.9135 235.387 74.0263 232.235C73.9277 232.038 73.9277 231.841 73.9277 231.644C73.632 230.265 73.8291 228.689 74.3221 226.917C75.3079 223.962 77.5753 222.386 81.0257 222.386C82.1101 222.386 83.3917 222.583 84.6732 222.878C84.7718 222.878 84.7718 222.878 84.8704 222.878L74.1249 192.248C74.0263 191.953 74.0263 191.657 74.2235 191.362C74.4206 191.165 74.6178 190.968 74.9135 190.968C75.4065 190.968 75.8994 191.263 76.0965 191.756L76.3923 192.544C78.0682 194.415 80.237 195.794 82.603 196.188C84.7718 196.582 86.9406 197.764 88.7151 199.438C89.7995 200.423 90.5882 201.605 90.9825 202.885L93.7428 210.666C93.8414 210.863 93.8414 211.158 93.7428 211.355C93.6442 211.552 93.4471 211.651 93.2499 211.749H93.1513H92.9542C92.6584 211.749 92.4613 211.651 92.2641 211.454C90.5882 209.287 88.2222 207.809 85.6591 207.317C84.1803 207.022 82.7016 206.332 81.3214 205.249L88.5179 225.735C89.9967 229.97 88.2222 233.515 88.2222 233.614C86.7435 235.978 84.5746 237.258 81.7157 237.258Z" fill="white"/>
<path id="Vector_12" d="M74.9135 191.657C75.2093 191.657 75.505 191.854 75.6036 192.15L75.8993 192.938C77.5752 194.907 79.9412 196.385 82.4058 196.877C84.476 197.271 86.5463 198.354 88.2222 199.93C89.208 200.817 89.9967 201.999 90.2924 203.18L93.0527 211.06C93.1513 211.257 93.0527 211.454 92.8556 211.454H92.757C92.6584 211.454 92.4612 211.355 92.3626 211.257C90.6867 209.09 88.1236 207.514 85.5604 207.022C83.3916 206.628 81.7157 205.446 80.0398 203.771L87.8278 226.03C89.208 229.97 87.6307 233.417 87.6307 233.515C86.0534 236.175 83.6874 236.864 81.6171 236.864C79.5469 236.864 77.7724 236.175 77.7724 236.175C77.7724 236.175 75.2093 235.19 74.4206 232.333C74.4206 232.136 74.322 231.94 74.322 231.743C74.1249 230.561 74.1249 229.083 74.7163 227.212C75.8008 223.863 78.4625 223.075 81.0256 223.075C82.3072 223.075 83.5888 223.272 84.476 223.568C84.6732 223.568 84.8704 223.666 85.0675 223.666H85.1661C85.3633 223.666 85.4619 223.765 85.5604 223.765L74.5192 192.248C74.5192 191.854 74.6178 191.657 74.9135 191.657ZM74.9135 190.672C74.4206 190.672 74.0263 190.869 73.7305 191.263C73.4348 191.657 73.4348 192.051 73.5334 192.544L83.9831 222.288C82.8987 222.091 81.9129 221.992 80.9271 221.992C77.2795 221.992 74.7163 223.666 73.7305 226.818C73.139 228.591 73.0404 230.265 73.2376 231.743C73.2376 232.038 73.3362 232.235 73.3362 232.432C74.2234 235.781 77.1809 236.962 77.2795 236.962C77.3781 236.962 79.2512 237.75 81.5186 237.75C84.5746 237.75 86.9406 236.47 88.3208 233.909C88.3208 233.909 90.1938 230.068 88.6165 225.636L81.9129 206.628C82.9973 207.317 84.0817 207.711 85.1661 207.908C87.5321 208.4 89.7995 209.779 91.3768 211.848V211.946H91.4754C91.7711 212.242 92.0669 212.34 92.4612 212.439L92.757 212.537L92.9541 212.439C93.2499 212.34 93.5456 212.143 93.7428 211.848C93.94 211.552 93.94 211.158 93.8414 210.863L91.0811 202.983C90.6867 201.703 89.8981 200.423 88.7151 199.339C86.9406 197.665 84.6732 196.483 82.4058 195.991C80.237 195.597 78.1667 194.316 76.5894 192.544L76.3922 191.854C76.2937 191.066 75.6036 190.672 74.9135 190.672Z" fill="#263238"/>
</g>
<g id="Group_9">
<g id="Group_10">
<path id="Vector_13" d="M34.8889 156.299C45.6344 154.034 50.9579 152.852 61.6048 150.488C58.253 136.01 55.5913 121.335 53.6196 106.66C41.7897 109.221 35.7762 110.502 23.9462 113.062C27.0023 127.639 30.5513 142.117 34.8889 156.299Z" fill="white" stroke="#263238" stroke-miterlimit="10" stroke-linecap="round" stroke-linejoin="round"/>
<path id="Vector_14" d="M56.6756 141.329C48.0004 143.2 43.6627 144.185 34.9875 146.056C32.4243 136.7 31.3399 132.071 29.2697 122.616C38.4379 120.646 43.0712 119.661 52.2394 117.691C53.7182 127.146 54.704 131.874 56.6756 141.329Z" fill="#263238" stroke="#263238" stroke-miterlimit="10" stroke-linecap="round" stroke-linejoin="round"/>
<g id="Group_11">
<path id="Vector_15" d="M47.4089 130.692C45.7329 136.109 44.9443 138.768 43.4655 144.185C48.789 143.003 51.3522 142.511 56.6756 141.329C52.9295 137.094 51.0564 134.927 47.4089 130.692Z" fill="white" stroke="#263238" stroke-miterlimit="10" stroke-linecap="round" stroke-linejoin="round"/>
<path id="Vector_16" d="M39.5222 129.51C37.5506 136.109 36.6633 139.458 34.8889 145.958C41.2967 144.579 44.55 143.89 50.9578 142.511C46.3244 137.389 44.057 134.73 39.5222 129.51Z" fill="white" stroke="#263238" stroke-miterlimit="10" stroke-linecap="round" stroke-linejoin="round"/>
<path id="Vector_17" d="M51.5494 124.29C51.7465 125.57 50.9579 126.851 49.7749 127.146C48.5919 127.442 47.3103 126.555 47.1131 125.275C46.8174 123.995 47.7046 122.616 48.8876 122.419C50.1692 122.025 51.3522 122.911 51.5494 124.29Z" fill="white" stroke="#263238" stroke-miterlimit="10" stroke-linecap="round" stroke-linejoin="round"/>
</g>
</g>
</g>
<g id="Group_12">
<g id="Group_13">
<g id="Group_14">
<path id="Vector_18" d="M72.7446 184.467C84.8703 185.354 90.9824 185.846 103.108 186.831C98.2776 172.846 96.2073 157.974 97.0946 143.2C85.2646 140.344 79.3497 138.867 67.4212 136.01C65.9425 152.36 67.8155 168.906 72.7446 184.467Z" fill="white" stroke="#263238" stroke-miterlimit="10" stroke-linecap="round" stroke-linejoin="round"/>
</g>
<g id="Group_15">
<path id="Vector_19" d="M94.8272 164.671C95.7144 171.27 91.6725 175.899 85.0675 175.209C78.4624 174.421 71.6602 168.118 70.8716 160.928C70.0829 153.739 75.4064 149.011 82.0114 150.291C88.5179 151.572 93.9399 158.072 94.8272 164.671Z" fill="#263238" stroke="#263238" stroke-miterlimit="10" stroke-linecap="round" stroke-linejoin="round"/>
<path id="Vector_20" d="M89.7995 163.883C84.9689 160.534 82.603 158.86 77.9696 155.314C78.2653 160.731 78.6596 163.489 79.6455 168.906C83.5888 166.838 85.659 165.754 89.7995 163.883Z" fill="white" stroke="#263238" stroke-miterlimit="10" stroke-linecap="round" stroke-linejoin="round"/>
</g>
</g>
</g>
</g>
</svg>
